<svg width="20" height="20" viewBox="0 0 20 20" fill="none" xmlns="http://www.w3.org/2000/svg">
<path d="M5.4353 18.161C5.4353 15.6445 7.48348 13.5963 10 13.5963C12.5165 13.5963 14.5647 15.6445 14.5647 18.161C14.5647 18.2202 14.5635 18.2791 14.5612 18.3378C13.1801 19.0962 11.6223 19.5 10 19.5C8.37768 19.5 6.81989 19.0962 5.4388 18.3378C5.43649 18.2791 5.4353 18.2202 5.4353 18.161Z" fill="#FFFED8" stroke="black"/>
<path d="M3.28258 16.7176L3.28248 16.7175C1.48751 14.9226 0.5 12.5384 0.5 10C0.5 7.46141 1.48751 5.07744 3.28248 3.28248C5.07744 1.48751 7.46141 0.5 10 0.5C12.5386 0.5 14.9226 1.48751 16.7175 3.28248C18.5125 5.07744 19.5 7.46141 19.5 10C19.5 12.5384 18.5125 14.9226 16.7175 16.7175C16.68 16.7551 16.6422 16.7922 16.6041 16.8291C16.2124 14.8834 14.9803 13.2399 13.3054 12.293C14.2553 11.4075 14.8515 10.1451 14.8515 8.74481C14.8515 6.06922 12.6756 3.89331 10 3.89331C7.32441 3.89331 5.1485 6.06922 5.1485 8.74481C5.1485 10.1451 5.7447 11.4075 6.69458 12.293C5.0197 13.2399 3.78761 14.8834 3.3959 16.8291C3.35785 16.7923 3.32008 16.7551 3.28258 16.7176Z" fill="#FFFED8" stroke="black"/>
<path d="M10 6.06519C11.4771 6.06519 12.6796 7.26758 12.6796 8.74481C12.6796 10.2219 11.4771 11.4244 10 11.4244C8.52291 11.4244 7.32037 10.2219 7.32037 8.74481C7.32037 7.26772 8.52291 6.06519 10 6.06519Z" fill="#FFFED8" stroke="black"/>
</svg>
