<svg width="38" height="39" viewBox="0 0 38 39" fill="none" xmlns="http://www.w3.org/2000/svg">
<path d="M29.5801 30.6006V27.7443H23.737V30.6006C23.737 31.1573 23.4045 31.6606 22.8921 31.8786L17.6241 34.1234C16.5452 34.5831 15.845 35.6425 15.845 36.8152V38.7761H37.4722V36.8152C37.4722 35.6425 36.7719 34.5831 35.693 34.1234L30.425 31.8786C29.9127 31.6606 29.5801 31.1573 29.5801 30.6006V30.6006Z" fill="#FFBD86"/>
<path d="M37.4722 36.8152V38.7761H35.9524V37.4605C35.9524 36.2881 35.2525 35.5275 34.1739 35.0674C33.173 34.6411 32.1725 34.2148 31.1717 33.7885C29.9881 33.2841 28.0607 32.8214 28.0607 31.2458C28.0607 31.2411 28.0607 27.7443 28.0607 27.7443H29.5804V30.6006C29.5804 31.1573 29.9129 31.6603 30.4253 31.8792L35.6927 34.1231C36.7722 34.5831 37.4722 35.6428 37.4722 36.8152V36.8152Z" fill="#F6A96C"/>
<path d="M33.3166 10.2085C30.2967 7.35157 26.6596 7.47819 26.6596 7.47819C26.6596 7.47819 23.0223 7.35157 20.0024 10.2085C17.7502 12.3391 16.6535 15.4504 16.9251 18.5783C17.2286 22.0781 18.6602 27.4484 24.3432 29.7148C25.8325 30.3089 27.4865 30.3089 28.9761 29.7148C34.6591 27.4484 36.0904 22.0781 36.3942 18.5783C36.6655 15.4504 35.5688 12.3391 33.3166 10.2085V10.2085Z" fill="#FFBD86"/>
<path d="M36.3942 18.5786C36.0907 22.0787 34.6594 27.4487 28.9764 29.7151C27.6546 30.2426 26.2038 30.3012 24.853 29.8929C25.7337 29.9344 26.6206 29.7879 27.456 29.4548C33.1391 27.1884 34.5709 21.818 34.8745 18.3183C35.1461 15.1895 34.0494 12.0785 31.7969 9.94785C30.2819 8.51422 28.6104 7.83231 27.3223 7.50748C28.5086 7.61487 31.0827 8.09502 33.3172 10.2091C35.5688 12.3397 36.6655 15.451 36.3942 18.5786V18.5786Z" fill="#F6A96C"/>
<path d="M23.9476 21.8393C22.9776 21.8393 22.1883 21.05 22.1883 20.08C22.1883 19.7661 22.4424 19.512 22.7563 19.512C23.0699 19.512 23.3243 19.7661 23.3243 20.08C23.3243 20.4238 23.6039 20.7033 23.9476 20.7033C24.2917 20.7033 24.5713 20.4238 24.5713 20.08C24.5713 19.7661 24.8257 19.512 25.1393 19.512C25.4529 19.512 25.7073 19.7661 25.7073 20.08C25.7073 21.05 24.918 21.8393 23.9476 21.8393V21.8393Z" fill="#474747"/>
<path d="M29.3712 21.8393C28.4009 21.8393 27.6116 21.05 27.6116 20.08C27.6116 19.7661 27.866 19.512 28.1796 19.512C28.4935 19.512 28.7476 19.7661 28.7476 20.08C28.7476 20.4238 29.0275 20.7033 29.3712 20.7033C29.715 20.7033 29.9948 20.4238 29.9948 20.08C29.9948 19.7661 30.249 19.512 30.5629 19.512C30.8764 19.512 31.1309 19.7661 31.1309 20.08C31.1309 21.05 30.3413 21.8393 29.3712 21.8393V21.8393Z" fill="#474747"/>
<path d="M16.1654 10.5724C15.5231 11.4371 15.3669 13.6071 15.3335 14.2573C15.2829 15.2419 15.3468 16.2445 15.5515 17.2083C15.7459 18.1227 16.1465 18.8617 16.6479 19.5567C16.8603 19.8507 17.305 19.7635 17.4008 19.4093C17.8668 17.689 18.4087 16.1232 19.6063 14.6884C20.6367 13.4541 21.9594 12.5249 23.422 11.9243C24.4512 11.5016 26.2609 10.7797 26.5611 9.48042C27.1265 7.03266 23.8495 5.81736 22.1035 6.02356C20.9417 6.16053 19.7953 6.51583 18.8238 7.18028C17.8046 7.87728 17.6404 8.37843 17.6549 9.77301C17.6588 10.1561 17.3641 10.3759 17.0011 10.2526C16.6571 10.1357 16.3834 10.2789 16.1654 10.5724V10.5724Z" fill="#8BEBDB"/>
<path d="M26.5611 9.48042C26.2605 10.7794 24.4509 11.5016 23.4217 11.9237C23.2119 12.0098 23.0063 12.1021 22.8028 12.2021C21.6141 11.3247 20.6153 10.1898 19.9021 8.89467C19.7104 8.54587 19.5373 8.18199 19.4483 7.79415C19.3793 7.49299 19.3616 7.1794 19.3287 6.87054C20.181 6.40194 21.1369 6.13775 22.1028 6.02356C23.8494 5.81677 27.1264 7.03237 26.5611 9.48042Z" fill="#5EE2C5"/>
<path d="M35.5271 6.54307C35.4738 6.74276 35.5043 6.95517 35.6111 7.13208C36.6805 8.9074 37.7473 10.3378 37.9719 13.3917C37.9719 13.3917 38.2902 18.323 36.7788 19.675C36.7788 19.675 36.1182 20.3072 35.9767 19.675C35.9767 19.675 35.5064 14.9029 28.0299 12.119C28.0299 12.119 20.3148 9.2559 21.11 4.72189C21.11 4.72189 21.4064 1.4375 25.1899 0.307692C27.4726 -0.374214 29.9387 0.101493 31.8661 1.50199C33.0488 2.36169 34.4144 3.64385 35.5593 5.49491C35.6697 5.6733 35.7019 5.88956 35.6478 6.09191L35.5271 6.54307Z" fill="#8BEBDB"/>
<path d="M36.7787 19.6753C36.7787 19.6753 36.2835 20.1486 36.0599 19.8661C36.874 17.9476 36.6512 14.4899 36.6512 14.4899C36.4267 11.4365 35.3599 10.0061 34.2908 8.23051C34.1843 8.0539 34.1529 7.84119 34.207 7.6415L34.3274 7.19035C34.3813 6.9877 34.3493 6.77203 34.239 6.59364C33.0941 4.74229 31.7285 3.46042 30.5457 2.60072C28.6178 1.19993 26.152 0.724517 23.8696 1.40642C23.2829 1.58156 22.7809 1.80847 22.3499 2.06673C22.956 1.37122 23.8563 0.705583 25.1899 0.307681C27.4729 -0.374521 29.939 0.101187 31.8661 1.50198C33.0485 2.36139 34.4141 3.64414 35.5593 5.49461C35.6697 5.673 35.7016 5.88955 35.6478 6.0922L35.5271 6.54335C35.4741 6.74304 35.5046 6.95486 35.6108 7.13236C36.6799 8.90709 37.747 10.3375 37.9722 13.3917C37.9722 13.3917 38.2899 18.323 36.7787 19.6753V19.6753Z" fill="#5EE2C5"/>
<path d="M2.04529 36.3487L1.64502 35.7088L3.44164 34.5852L3.84161 35.2251C3.98066 35.4473 3.91321 35.7399 3.69103 35.8789L2.69909 36.4993C2.47692 36.638 2.18433 36.5709 2.04529 36.3487Z" fill="#0396FD"/>
<path d="M16.8118 25.4864C16.6322 25.4864 16.4556 25.4015 16.3452 25.2429C16.166 24.9856 16.2293 24.6315 16.4867 24.4522L18.9507 22.7357C19.2081 22.5567 19.5622 22.6198 19.7415 22.8771C19.9207 23.1345 19.8574 23.4886 19.6001 23.6679L17.136 25.3844C17.0369 25.4533 16.9239 25.4864 16.8118 25.4864V25.4864Z" fill="#474747"/>
<path d="M4.48425 31.3408L5.64275 33.1927L2.80389 34.9683L1.64539 33.1167L4.48425 31.3408Z" fill="#FFE7BF"/>
<path d="M15.7681 27.62L13.9943 24.7838L15.4096 23.8221C15.6939 23.6443 16.0684 23.7306 16.2462 24.0149L17.3763 25.8219C17.5544 26.1059 17.468 26.4805 17.1837 26.6586L15.7681 27.62Z" fill="#83BFFF"/>
<path d="M2.04535 36.3487L0.0721163 33.1939C-0.0666316 32.9717 0.00081935 32.6788 0.222994 32.5401L1.21494 31.9194C1.43682 31.7807 1.7297 31.8481 1.86844 32.0703L3.84168 35.2248C3.98073 35.447 3.91327 35.7399 3.6911 35.8786L2.69916 36.4993C2.47698 36.638 2.1844 36.5709 2.04535 36.3487Z" fill="#83BFFF"/>
<path d="M5.06349 32.2667L5.64274 33.1927L3.4349 34.5737L2.85565 33.6477L5.06349 32.2667Z" fill="#FFE1A8"/>
<path d="M6.46542 34.5086L3.66058 30.0243L13.196 24.0602C13.4646 23.8922 13.8191 23.9738 13.9871 24.2427L16.1831 27.7531C16.3511 28.0221 16.2695 28.3762 16.0009 28.5445L6.46542 34.5086Z" fill="#AED3FF"/>
<path d="M6.46543 34.5086L5.80157 33.4471L15.8234 27.1786L16.1831 27.7531C16.3512 28.0221 16.2695 28.3765 16.0009 28.5445L6.46543 34.5086Z" fill="#83BFFF"/>
<path d="M11.0921 31.615L8.28723 27.1307L13.1958 24.0602C13.4647 23.8922 13.8191 23.9738 13.9871 24.2427L16.1828 27.7531C16.3512 28.0221 16.2695 28.3762 16.0006 28.5445L11.0921 31.615Z" fill="#FFC143"/>
<path d="M11.0921 31.615L10.4318 30.5595L15.8275 27.1848L16.1828 27.7534C16.3512 28.0221 16.2695 28.3765 16.0006 28.5445L11.0921 31.615Z" fill="#FFB509"/>
<path d="M15.9722 27.4162L15.4542 26.5878L17.1801 25.5083L17.3763 25.8219C17.5541 26.1059 17.4677 26.4804 17.1837 26.6585L15.9722 27.4162Z" fill="#0396FD"/>
<path d="M11.9899 27.5916C11.8962 27.6508 11.7923 27.678 11.6894 27.678C11.5 27.678 11.3151 27.5839 11.2069 27.4115L10.2596 25.8968L11.2228 25.2947L12.1704 26.8094C12.337 27.0751 12.2559 27.4257 11.9899 27.5916Z" fill="#474747"/>
<path d="M7.36416 30.4855C7.27009 30.5438 7.16654 30.5719 7.0633 30.5719C6.87396 30.5719 6.68936 30.4772 6.58108 30.3044L5.6344 28.7904V28.7898L6.59706 28.1877L7.54433 29.7024C7.71088 29.9681 7.62983 30.3189 7.36416 30.4855Z" fill="#474747"/>
<path d="M7.20445 36.2573C7.01511 36.2573 6.83021 36.1629 6.72223 35.9904L2.44057 29.145C2.27431 28.8791 2.35507 28.5285 2.62103 28.3622C2.88699 28.196 3.23726 28.2768 3.40382 28.5427L7.68548 35.3881C7.85174 35.6541 7.77098 36.0046 7.50502 36.1709C7.41153 36.2295 7.3074 36.2573 7.20445 36.2573Z" fill="#83BFFF"/>
</svg>
