<svg width="15" height="15" viewBox="0 0 15 15" fill="none" xmlns="http://www.w3.org/2000/svg">
<path d="M12.3212 7.49999C12.0254 7.49999 11.7855 7.73984 11.7855 8.03571V13.3928C11.7855 13.6887 11.5457 13.9286 11.2498 13.9286H1.60712C1.31125 13.9286 1.0714 13.6887 1.0714 13.3928V2.67856C1.0714 2.38268 1.31125 2.14283 1.60712 2.14283H8.0356C8.33148 2.14283 8.57132 1.90298 8.57132 1.6071C8.57132 1.31123 8.33148 1.07141 8.0356 1.07141H1.60712C0.719532 1.07141 0 1.79095 0 2.67856V13.3928C0 14.2804 0.719532 15 1.60712 15H11.2498C12.1374 15 12.857 14.2804 12.857 13.3928V8.03568C12.857 7.73984 12.6171 7.49999 12.3212 7.49999Z" fill="black"/>
<path d="M14.3994 0.600741C14.0148 0.216031 13.4931 -5.43035e-05 12.9491 8.47553e-06C12.4047 -0.001561 11.8825 0.214901 11.4989 0.601087L4.44256 7.65695C4.38402 7.71593 4.33985 7.78763 4.31345 7.86641L3.24205 11.0807C3.14854 11.3614 3.30031 11.6648 3.58102 11.7582C3.63548 11.7764 3.69251 11.7856 3.74989 11.7857C3.8074 11.7856 3.86456 11.7764 3.91917 11.7584L7.13342 10.687C7.21236 10.6606 7.28408 10.6162 7.34288 10.5573L14.3992 3.50091C15.2001 2.7001 15.2002 1.40165 14.3994 0.600741ZM13.6417 2.74392L6.67752 9.70823L4.59683 10.403L5.2895 8.32498L12.2564 1.36071C12.6394 0.978452 13.2598 0.979079 13.642 1.36209C13.8246 1.54506 13.9275 1.79276 13.9283 2.05125C13.929 2.31113 13.8258 2.56048 13.6417 2.74392Z" fill="black"/>
</svg>
