<svg width="79" height="79" viewBox="0 0 79 79" fill="none" xmlns="http://www.w3.org/2000/svg">
<g clip-path="url(#clip0)">
<path d="M66.815 78.9999H12.4618C8.19259 78.9993 4.22779 76.7889 1.98248 73.1568C-0.262233 69.5253 -0.466791 64.9901 1.44161 61.1709L28.6158 6.81536C30.7017 2.63878 34.9697 0 39.6384 0C44.3071 0 48.5751 2.63878 50.661 6.81536L77.8352 61.1709C79.7436 64.9901 79.5391 69.5253 77.2943 73.1568C75.0496 76.7889 71.0842 78.9993 66.815 78.9999V78.9999Z" fill="#FF7761"/>
<path d="M39.6384 19.7458C40.9993 19.7458 42.1027 20.8492 42.1027 22.2101V51.7818C42.1027 53.1427 40.9993 54.2461 39.6384 54.2461C38.2775 54.2461 37.1741 53.1427 37.1741 51.7818V22.2101C37.1741 20.8492 38.2775 19.7458 39.6384 19.7458Z" fill="white"/>
<path d="M37.1741 59.1747H42.1027V64.1034H37.1741V59.1747Z" fill="white"/>
</g>
<defs>
<clipPath id="clip0">
<rect width="79" height="79" fill="white"/>
</clipPath>
</defs>
</svg>
