<svg width="15" height="15" viewBox="0 0 15 15" fill="none" xmlns="http://www.w3.org/2000/svg">
<path d="M14.8396 11.9735L11.8784 8.45684C11.7858 8.3469 11.664 8.28592 11.5377 8.2861H10.9999V6.32986C11.0534 6.35469 11.1098 6.36756 11.1667 6.3679H11.2007C11.335 6.35636 11.4598 6.27558 11.5467 6.14412L11.8777 5.64955C12.0566 5.37964 12.0358 4.97684 11.8307 4.73937L10.9999 3.78795V1.57243C10.9999 1.2193 10.7761 0.933023 10.4999 0.933023H9.74995C9.4738 0.933023 9.24995 1.2193 9.24995 1.57243V1.78505L7.83223 0.162244C7.64302 -0.0540813 7.35694 -0.0540813 7.16775 0.162244L3.16933 4.73746C2.9642 4.97483 2.94341 5.37753 3.12233 5.64731L3.45332 6.14412C3.54035 6.27584 3.66552 6.35661 3.80006 6.3679C3.86794 6.37325 3.93597 6.36095 4.00005 6.33178V8.2861H3.50007C3.37439 8.28573 3.25326 8.34627 3.16109 8.45555L0.161118 11.9723C0.0676932 12.0852 0.0124302 12.2402 0.00711556 12.4045C0.00411375 12.4169 0.00177627 12.4295 0.00012773 12.4422V14.3604C-0.00292329 14.5312 0.0487965 14.6961 0.143231 14.8168C0.237665 14.9376 0.36662 15.0037 0.500127 14.9998H14.4999C14.6334 15.0037 14.7623 14.9376 14.8568 14.8168C14.9512 14.6961 15.0029 14.5312 14.9999 14.3604V12.4422C14.9985 12.4283 14.9963 12.4145 14.9934 12.401C14.9871 12.2385 14.9321 12.0853 14.8396 11.9735V11.9735ZM8.24997 10.524H6.75V7.96641C6.75 7.78986 6.86193 7.64673 6.99999 7.64673H7.99996C8.13802 7.64673 8.24995 7.78986 8.24995 7.96641V10.524H8.24997ZM7.99999 7.00731H7.00001C6.58581 7.00731 6.25003 7.43672 6.25003 7.96641V10.524H4.75006C4.612 10.524 4.50007 10.3809 4.50007 10.2043V5.82154L7.50001 2.38796L10.5 5.82154V10.2043C10.5 10.3809 10.388 10.524 10.25 10.524H8.75V7.96638C8.74997 7.43672 8.41419 7.00731 7.99999 7.00731V7.00731ZM9.74995 1.5724H10.4999V3.21566L9.74995 2.35725V1.5724ZM3.50283 5.21699L7.49999 0.638884L11.4999 5.23329L11.1692 5.72849L7.66674 1.72073C7.57181 1.61205 7.42817 1.61205 7.33324 1.72073L3.8333 5.72849L3.50283 5.21699ZM3.50007 8.92551H4.00007V10.2043C4.00007 10.734 4.33586 11.1634 4.75006 11.1634H10.2499C10.6641 11.1634 10.9999 10.734 10.9999 10.2043V8.92551H11.5377L14.4999 12.4422H0.500127L3.50007 8.92551ZM0.500127 14.3604V13.0816H14.4999V14.3604H0.500127Z" fill="black"/>
</svg>
