<svg width="34" height="40" viewBox="0 0 34 40" fill="none" xmlns="http://www.w3.org/2000/svg">
<path d="M6.6563 18.1335L0.847383 11.9825L0.322632 12.3606L3.59882 38.9878C3.67064 39.5718 4.04528 40 4.48437 40C5.00492 40 5.41634 39.4049 5.37982 38.7047L4.80464 27.6824C4.64839 24.6879 5.30929 21.7247 6.6563 19.3456V18.1335Z" fill="#FFE07D"/>
<path d="M4.49847 38.8832L2.67875 13.9218L0.847322 11.9825L0.322571 12.3606L3.59876 38.9878C3.67058 39.5718 4.04522 40 4.48431 40C4.65679 40 4.81667 39.9337 4.95288 39.8208C4.70373 39.6322 4.52795 39.288 4.49847 38.8832Z" fill="#FFD064"/>
<path d="M15.3778 21.4564C10.5741 9.41935 5.40116 1.72478 5.40116 1.72478L5.05975 3.13764L15.2799 29.3729L20.2223 32.0069L25.1586 30.0314V28.9152C21.9859 29.1935 17.9782 27.9726 15.3778 21.4564Z" fill="#EC625E"/>
<path d="M20.2222 32.0068L22.5312 31.0828C19.7591 30.2197 16.834 27.8185 15.329 21.9509C15.1766 21.3568 15.0224 20.7718 14.8668 20.1959C10.2146 8.8852 5.40116 1.72478 5.40116 1.72478L5.05975 3.13764L11.863 20.6016L12.0051 20.5269L12.3059 21.7385L15.2799 29.3729L20.2222 32.0068Z" fill="#DF4854"/>
<path d="M2.98436 0.51258C3.44058 -0.184652 4.25043 -0.167131 4.69457 0.544047C6.09485 2.78619 9.07043 8.15903 11.6999 16.9314C15.139 28.4046 18.1551 34.2337 25.3307 28.7876C25.9446 28.3216 26.685 28.2681 27.3312 28.647C29.307 29.4877 30.8286 30.2986 31.9818 31.0094C33.4722 31.928 33.4736 34.78 31.981 35.6923C30.0385 36.8795 27.3311 38.317 24.205 39.3707C21.4878 40.2866 19.0678 40.0769 17.1888 39.5377C14.924 38.8878 13.1146 36.5935 12.4887 33.5876C9.6637 20.0202 1.99143 13.6155 0.322657 12.3605C0.120954 12.2089 -0.00317079 11.9204 6.16329e-05 11.609C0.0594735 5.87418 1.85566 2.23766 2.98436 0.51258Z" fill="#F87C68"/>
<path d="M19.7639 38.7004C17.499 38.0505 15.6896 35.7562 15.0638 32.7503C12.2389 19.183 4.56657 12.7783 2.8978 11.5234C2.69609 11.3717 2.57203 11.0832 2.57527 10.7718C2.62362 6.10425 3.82246 2.82685 4.87552 0.83853C4.81294 0.736112 4.75198 0.636918 4.69457 0.545046C4.25037 -0.166132 3.44052 -0.183652 2.98436 0.51358C1.85566 2.23857 0.0594735 5.87509 6.16331e-05 11.6099C-0.00317079 11.9213 0.120954 12.2098 0.322592 12.3615C1.99136 13.6164 9.6637 20.0211 12.4886 33.5885C13.1144 36.5943 14.9238 38.8886 17.1886 39.5385C19.0677 40.0777 21.4877 40.2874 24.2049 39.3715C24.6796 39.2115 25.1445 39.0425 25.5986 38.8671C23.3613 39.3797 21.3658 39.1601 19.7639 38.7004Z" fill="#EC625E"/>
</svg>
