<svg width="34" height="34" viewBox="0 0 34 34" fill="none" xmlns="http://www.w3.org/2000/svg">
<path d="M24.6535 2.69212C24.6535 1.20853 25.8561 0.00592041 27.3397 0.00592041H6.43117C5.2514 0.00592041 4.29498 0.962336 4.29498 2.1421V26.4679H24.6534V6.74664V5.37838V2.69212H24.6535Z" fill="#FFE07D"/>
<path d="M25.7179 0.00592041C24.2343 0.00592041 23.0317 1.20859 23.0317 2.69212V13.3447C23.0317 13.9714 22.6201 14.529 22.0168 14.6991C17.5684 15.9535 14.3079 20.0411 14.3079 24.8907C14.3079 26.1657 14.5334 27.388 14.9464 28.5201H23.0317H24.6535V14.3051V6.74658V2.69212C24.6535 1.20853 25.8562 0.00592041 27.3397 0.00592041H25.7179V0.00592041Z" fill="#FFD064"/>
<path d="M21.4069 4.63887H7.94871C7.66533 4.63887 7.43561 4.40921 7.43561 4.12577C7.43561 3.84233 7.66527 3.61267 7.94871 3.61267H21.4069C21.6902 3.61267 21.9199 3.84233 21.9199 4.12577C21.9199 4.40921 21.6902 4.63887 21.4069 4.63887Z" fill="#2B4D66"/>
<path d="M21.4069 9.75514H7.94871C7.66533 9.75514 7.43561 9.52548 7.43561 9.24204C7.43561 8.9586 7.66527 8.72894 7.94871 8.72894H21.4069C21.6902 8.72894 21.9199 8.9586 21.9199 9.24204C21.9199 9.52548 21.6902 9.75514 21.4069 9.75514Z" fill="#2B4D66"/>
<path d="M21.4069 14.8715H7.94871C7.66533 14.8715 7.43561 14.6418 7.43561 14.3584C7.43561 14.075 7.66527 13.8453 7.94871 13.8453H21.4069C21.6902 13.8453 21.9199 14.0749 21.9199 14.3584C21.9199 14.6418 21.6902 14.8715 21.4069 14.8715Z" fill="#2B4D66"/>
<path d="M21.4069 19.9878H7.94871C7.66533 19.9878 7.43561 19.7581 7.43561 19.4747C7.43561 19.1913 7.66527 18.9616 7.94871 18.9616H21.4069C21.6902 18.9616 21.9199 19.1913 21.9199 19.4747C21.9199 19.7581 21.6902 19.9878 21.4069 19.9878Z" fill="#2B4D66"/>
<path d="M22.1992 28.5202H3.79784C1.70037 28.5202 0 26.8198 0 24.7223V24.0497C0 23.872 0.144143 23.7278 0.321882 23.7278H22.1992V28.5202Z" fill="#EAB14D"/>
<path d="M14.3079 24.8908C14.3079 26.1658 14.5334 27.3881 14.9464 28.5202H22.1992V23.7278H14.3718C14.33 24.1098 14.3079 24.4978 14.3079 24.8908Z" fill="#E49542"/>
<path d="M24.8967 33.9941C29.9243 33.9941 34 29.9184 34 24.8908C34 19.8632 29.9243 15.7875 24.8967 15.7875C19.8691 15.7875 15.7934 19.8632 15.7934 24.8908C15.7934 29.9184 19.8691 33.9941 24.8967 33.9941Z" fill="#DD636E"/>
<path d="M24.8967 15.7875C24.6553 15.7875 24.4163 15.797 24.1796 15.8155C28.8721 16.1811 32.5659 20.1045 32.5659 24.8908C32.5659 29.677 28.872 33.6004 24.1796 33.9661C24.4163 33.9845 24.6553 33.9941 24.8967 33.9941C29.9243 33.9941 34 29.9184 34 24.8908C34 19.8632 29.9243 15.7875 24.8967 15.7875V15.7875Z" fill="#DA4A54"/>
<path d="M24.8967 31.6808C28.6467 31.6808 31.6867 28.6408 31.6867 24.8908C31.6867 21.1407 28.6467 18.1007 24.8967 18.1007C21.1466 18.1007 18.1066 21.1407 18.1066 24.8908C18.1066 28.6408 21.1466 31.6808 24.8967 31.6808Z" fill="#F4FBFF"/>
<path d="M24.8967 18.1007C24.5821 18.1007 24.2726 18.1226 23.9694 18.164C27.2807 18.6163 29.8321 21.4553 29.8321 24.8908C29.8321 28.3262 27.2806 31.1653 23.9694 31.6175C24.2726 31.659 24.5821 31.6808 24.8967 31.6808C28.6467 31.6808 31.6867 28.6408 31.6867 24.8907C31.6867 21.1407 28.6467 18.1007 24.8967 18.1007V18.1007Z" fill="#DAF1F4"/>
<path d="M24.8967 20.7035C24.6133 20.7035 24.3836 20.4738 24.3836 20.1904V19.9554C24.3836 19.672 24.6133 19.4423 24.8967 19.4423C25.1801 19.4423 25.4098 19.6719 25.4098 19.9554V20.1904C25.4098 20.4738 25.1801 20.7035 24.8967 20.7035Z" fill="#365E7D"/>
<path d="M28.2204 22.0802C28.089 22.0802 27.9577 22.0301 27.8575 21.9298C27.6571 21.7294 27.6572 21.4046 27.8577 21.2042L28.0238 21.0381C28.2242 20.8379 28.5491 20.8378 28.7494 21.0383C28.9497 21.2387 28.9497 21.5636 28.7492 21.7639L28.583 21.93C28.483 22.0301 28.3517 22.0802 28.2204 22.0802Z" fill="#365E7D"/>
<path d="M29.8321 25.4038H29.5971C29.3137 25.4038 29.084 25.1742 29.084 24.8907C29.084 24.6073 29.3136 24.3776 29.5971 24.3776H29.8321C30.1155 24.3776 30.3452 24.6073 30.3452 24.8907C30.3452 25.1742 30.1155 25.4038 29.8321 25.4038Z" fill="#365E7D"/>
<path d="M20.1963 25.4038H19.9613C19.6779 25.4038 19.4482 25.1742 19.4482 24.8907C19.4482 24.6073 19.6778 24.3776 19.9613 24.3776H20.1963C20.4797 24.3776 20.7094 24.6073 20.7094 24.8907C20.7094 25.1742 20.4798 25.4038 20.1963 25.4038Z" fill="#365E7D"/>
<path d="M28.3866 28.8938C28.2554 28.8938 28.1241 28.8437 28.0239 28.7436L27.8577 28.5775C27.6573 28.3771 27.6572 28.0522 27.8575 27.8519C28.0578 27.6513 28.3827 27.6513 28.5831 27.8517L28.7493 28.0178C28.9497 28.2182 28.9498 28.5431 28.7495 28.7434C28.6493 28.8436 28.5179 28.8938 28.3866 28.8938Z" fill="#365E7D"/>
<path d="M24.8967 30.3393C24.6133 30.3393 24.3836 30.1096 24.3836 29.8262V29.5912C24.3836 29.3078 24.6133 29.0781 24.8967 29.0781C25.1801 29.0781 25.4098 29.3077 25.4098 29.5912V29.8262C25.4098 30.1096 25.1801 30.3393 24.8967 30.3393Z" fill="#365E7D"/>
<path d="M21.4069 28.8938C21.2757 28.8938 21.1443 28.8436 21.0441 28.7435C20.8437 28.5431 20.8437 28.2183 21.0441 28.0179L21.2102 27.8518C21.4106 27.6515 21.7354 27.6515 21.9358 27.8518C22.1362 28.0522 22.1362 28.377 21.9358 28.5774L21.7697 28.7435C21.6695 28.8436 21.5382 28.8938 21.4069 28.8938Z" fill="#365E7D"/>
<path d="M21.573 22.0802C21.4418 22.0802 21.3105 22.0301 21.2102 21.93L21.0441 21.7639C20.8437 21.5634 20.8437 21.2386 21.0441 21.0382C21.2445 20.8379 21.5693 20.8379 21.7697 21.0382L21.9358 21.2044C22.1362 21.4048 22.1362 21.7296 21.9358 21.93C21.8357 22.0302 21.7043 22.0802 21.573 22.0802Z" fill="#365E7D"/>
<path d="M26.2952 25.4038H24.8967C24.6133 25.4038 24.3836 25.1742 24.3836 24.8907V22.1828C24.3836 21.8994 24.6133 21.6697 24.8967 21.6697C25.1801 21.6697 25.4098 21.8993 25.4098 22.1828V24.3776H26.2952C26.5785 24.3776 26.8083 24.6073 26.8083 24.8907C26.8083 25.1742 26.5786 25.4038 26.2952 25.4038Z" fill="#2B4D66"/>
<path d="M29.5477 6.74658H24.6534V2.69212C24.6534 1.20853 25.8561 0.00592041 27.3396 0.00592041C28.8232 0.00592041 30.0258 1.20859 30.0258 2.69212V6.2684C30.026 6.53252 29.8118 6.74658 29.5477 6.74658V6.74658Z" fill="#EAB14D"/>
<path d="M28.2147 0.15252C27.9403 0.0579739 27.6462 0.00592041 27.3396 0.00592041C25.8561 0.00592041 24.6534 1.20859 24.6534 2.69212V6.74658H26.4036V2.69212C26.4035 1.51507 27.161 0.515566 28.2147 0.15252V0.15252Z" fill="#E49542"/>
</svg>
