<svg width="20" height="20" viewBox="0 0 20 20" fill="none" xmlns="http://www.w3.org/2000/svg">
<path d="M10.9486 0.893129L10.9485 0.893045C10.6945 0.638902 10.3593 0.5 10.0001 0.5C9.6409 0.5 9.30567 0.638815 9.05149 0.89297L8.69833 0.539769L9.05149 0.892973L0.898148 9.04532L0.897207 9.04628L0.889294 9.05434C0.369317 9.57726 0.370325 10.4267 0.891788 10.9482L0.891871 10.9482C1.1305 11.187 1.44421 11.3247 1.78159 11.3391L1.79517 11.3397L1.80869 11.341C1.81115 11.3413 1.81387 11.3414 1.81692 11.3414H2.14212H2.64212V11.8414V17.8453C2.64212 18.7571 3.38491 19.5 4.29733 19.5H7.48949C7.537 19.5 7.57549 19.4614 7.57549 19.4141V14.707C7.57549 13.8887 8.24042 13.2239 9.05871 13.2239H10.9415C11.7598 13.2239 12.4248 13.8887 12.4248 14.707V19.4141C12.4248 19.4615 12.4632 19.5 12.5108 19.5H15.7029C16.6153 19.5 17.3581 18.7571 17.3581 17.8453V11.8414V11.3414H17.8581H18.1597C18.5186 11.3414 18.8538 11.2027 19.1082 10.9486C19.1083 10.9485 19.1083 10.9484 19.1084 10.9484M10.9486 0.893129L19.4628 8.69904C20.1794 9.41711 20.1791 10.5844 19.4618 11.302L19.1084 10.9484M10.9486 0.893129L19.1078 9.05123L19.1088 9.05223M10.9486 0.893129L19.1088 9.05223M19.1084 10.9484C19.6304 10.4259 19.6306 9.575 19.1088 9.05223M19.1084 10.9484L19.1088 9.05223" fill="#FFFED8" stroke="black"/>
</svg>
