<svg width="15" height="15" viewBox="0 0 15 15" fill="none" xmlns="http://www.w3.org/2000/svg">
<path d="M0.574376 15H14.4254C14.5789 15.0005 14.7263 14.9476 14.8343 14.8531C14.9424 14.7586 15.002 14.6305 14.9999 14.4975V13.4877C14.9041 11.8035 13.8457 11.5207 13.803 11.5102L10.097 10.5632V9.16325C10.4759 8.86017 10.7101 8.44519 10.7534 8H11.5398C12.0179 8 12.4055 7.66421 12.4055 7.25V5.75C12.404 5.4333 12.173 5.15156 11.8283 5.046V3.5C11.8283 1.50475 9.96769 0 7.4999 0C5.0321 0 3.17145 1.50475 3.17145 3.5V5.046C2.8268 5.15156 2.59583 5.4333 2.59432 5.75V7.25C2.59583 7.56669 2.8268 7.84843 3.17145 7.954V8.25C3.17145 8.80228 3.68822 9.25 4.3257 9.25H4.90283V10.5632L1.19912 11.5097C1.1541 11.5207 0.0962263 11.8035 0.000134722 13.5V14.4932C-0.00321061 14.6269 0.0558658 14.7561 0.163973 14.8515C0.27208 14.9469 0.420062 15.0004 0.574376 15V15ZM3.74857 4.025C4.11485 2.50009 5.70384 1.43054 7.4999 1.5C9.29413 1.43549 10.8799 2.50284 11.2512 4.025V5H10.8946C10.606 3.94625 10.0485 3.62275 9.98472 3.589C9.18164 3.1715 6.66826 3.2405 5.72667 3.29275C5.45335 3.30164 5.19345 3.39771 4.9969 3.5625C4.57383 3.97174 4.27494 4.46574 4.12717 5H3.74857V4.025ZM5.47995 9.695C5.95204 10.225 6.17424 10.75 7.04454 10.75C8.3526 10.75 8.58749 10.854 9.26792 9.99675C9.34439 9.9005 9.4275 9.79825 9.52013 9.69375V10.7105C9.05612 11.7742 5.93415 11.7652 5.48024 10.7105L5.47995 9.695ZM9.58332 8.898C8.68301 9.59825 8.65675 10.25 7.95496 10.25C6.70866 10.25 6.71702 10.355 6.20742 9.7135C6.09748 9.575 5.96763 9.41625 5.80661 9.25H6.42586C6.52813 9.40419 6.71751 9.49946 6.92277 9.5H8.07702C8.39576 9.5 8.65415 9.27614 8.65415 9V8.5C8.65415 8.22386 8.39576 8 8.07702 8H6.92277C6.60403 8 6.34564 8.22386 6.34564 8.5V8.75H5.2491C4.7874 8.31525 4.79894 7.931 4.81914 7.4575C4.85562 7.09197 4.82769 6.72375 4.73633 6.3655C4.62465 5.86075 4.55453 5.5155 4.69304 5.09975C4.81693 4.66108 5.06158 4.25492 5.40608 3.916C5.50325 3.83815 5.62986 3.79371 5.76217 3.791C6.70058 3.73875 8.82787 3.677 9.68952 4.0185C10.0323 4.249 10.4525 5.04825 10.3835 5.68425C10.3171 6.2875 10.1708 6.58425 10.1708 7.05925C10.1703 7.83625 10.3492 8.3 9.58304 8.89675L9.58332 8.898ZM6.92277 9V8.5H8.07702V9H6.92277ZM11.8283 7.25C11.8283 7.38807 11.6992 7.5 11.5398 7.5H10.7607C10.7165 6.42825 10.8521 6.7 10.9575 5.73275C10.9641 5.65531 10.9658 5.57761 10.9627 5.5H11.5398C11.6992 5.5 11.8283 5.61193 11.8283 5.75V7.25ZM11.0562 2.496C10.4375 1.75 9.35478 1 7.4999 1C5.64501 1 4.56232 1.75 3.94364 2.496C5.01825 -0.17375 9.98154 -0.17 11.0562 2.496ZM3.17145 5.75C3.17145 5.61193 3.30064 5.5 3.46001 5.5H4.04089C4.04499 5.82272 4.08784 6.1442 4.16872 6.45925C4.2551 6.80081 4.27886 7.15203 4.23913 7.5H3.46001C3.30064 7.5 3.17145 7.38807 3.17145 7.25V5.75ZM3.74857 8.25V8H4.24634C4.27045 8.26531 4.36559 8.5221 4.52423 8.75H4.3257C4.00696 8.75 3.74857 8.52614 3.74857 8.25V8.25ZM1.36071 11.9897L5.03239 11.0512C5.26093 11.4 5.88712 12 7.4999 12C9.11268 12 9.73886 11.4 9.9674 11.05L13.6353 11.9875C13.6642 11.996 14.3504 12.2125 14.424 13.4987V14.5H0.577261V13.5122C0.651134 12.2125 1.33561 11.9972 1.36071 11.9897V11.9897Z" fill="black"/>
</svg>
