<svg width="30" height="39" viewBox="0 0 30 39" fill="none" xmlns="http://www.w3.org/2000/svg">
<path d="M27.1014 24.4449C27.0687 24.433 26.5036 24.2827 26.5036 24.2827L25.5594 24.0366C25.1876 23.9395 24.793 24.0384 24.5091 24.3001C24.0821 24.6935 21.7985 26.7103 18.7628 27.7868C18.3059 27.9488 18 28.3859 18 28.8765V37.8456C18 38.4831 18.5098 39 19.1387 39H28.8613C29.4902 39 30 38.4831 30 37.8456V28.6189C30 26.8686 28.7268 25.0352 27.1014 24.4449Z" fill="#0A2533"/>
<path d="M2.89862 24.4449C2.93134 24.433 3.49643 24.2827 3.49643 24.2827L4.44062 24.0366C4.81228 23.9395 5.20702 24.0384 5.49086 24.3001C5.91786 24.6935 8.20152 26.7103 11.2372 27.7868C11.6941 27.9488 12 28.3859 12 28.8765V37.8456C12 38.4831 11.4902 39 10.8613 39H1.13868C0.509824 39 0 38.4831 0 37.8456V28.6189C0 26.8686 1.27319 25.0352 2.89862 24.4449Z" fill="#1F3C59"/>
<path d="M18.6258 28.07C17.3766 28.5037 16.157 28.7236 15.0008 28.7236C13.8435 28.7236 12.6253 28.5016 11.38 28.0637C11.2569 28.0203 11.1288 28 11.0015 28V38.9999H11C11.0005 38.9999 11.001 39 11.0015 39H19V28.0082C18.8741 28.0082 18.7476 28.0277 18.6258 28.07Z" fill="#0A2533"/>
<path d="M18.6262 28.0619C17.3784 28.4958 16.16 28.716 15.0049 28.716C15.0032 28.716 15.0017 28.7159 15 28.7159V39H19V28C18.8743 28 18.7479 28.0195 18.6262 28.0619Z" fill="#04151C"/>
<path d="M25.9955 24.8554C25.9965 22.2424 26 11.9388 26 11.6232C26 5.21415 21.0654 0 15 0C8.9346 0 4 5.21415 4 11.6232C4 11.9384 4.0022 22.2409 4.00271 24.8554C4.9493 25.7444 8.07213 28.534 12.0095 29.5897C12.535 29.7305 13.6261 29.1361 13.6261 29.1361C13.6261 29.1361 14.5364 30 15.0011 30C20.262 30 24.8137 25.9431 25.9955 24.8554Z" fill="#335373"/>
<path d="M15.0048 0C15.0032 0 15.0016 7.74877e-05 15 7.74877e-05V29.9997C15.0018 29.9997 15.004 30 15.0058 30C20.2645 30 24.8143 25.9431 25.9955 24.8554C25.9965 22.2423 26 11.9388 26 11.6231C26.0001 5.21415 21.0676 0 15.0048 0Z" fill="#1F3C59"/>
<path d="M10.3329 16H8C8 22.2255 10.3678 26.936 11.8281 29.592C12.7795 29.8309 13.9761 29.9826 15 30C14.5746 29.3634 10.3329 23.5622 10.3329 16Z" fill="#1F3C59"/>
<path d="M14.999 9C11.3798 9.00312 8 12.2295 8 12.2295V15.7996C8 19.7666 11.1397 22.9966 14.999 23H15.001C18.8603 22.9966 22 19.7666 22 15.7996V12.2295C22 12.2295 18.6202 9.00312 14.999 9Z" fill="#FFE5D0"/>
<path d="M15 9V23H15.001C18.8603 22.9966 22 19.7666 22 15.7996V12.2295C21.9999 12.2295 18.6207 9.00376 15 9Z" fill="#F7C9AF"/>
<path d="M29 8V7.27651C29 3.81856 25.8603 1.00293 21.999 1C18.1397 1.00293 15 3.81856 15 7.27651V8C16.3894 7.14463 19.0063 5.83414 22 5.83184C24.9938 5.83414 27.6107 7.1447 29 8Z" fill="#A6896B"/>
<path d="M22 24V28.8318C24.9937 28.8341 27.6106 30.1447 29 31V30.2765C28.9999 26.8188 25.8608 24.0034 22 24Z" fill="#8C624D"/>
</svg>
