<svg width="20" height="20" viewBox="0 0 20 20" fill="none" xmlns="http://www.w3.org/2000/svg">
<path d="M19.461 8.69905C19.4604 8.6986 19.4599 8.69798 19.4594 8.69753L11.301 0.539399C10.9533 0.191498 10.4909 0 9.99913 0C9.50734 0 9.045 0.191498 8.69709 0.539399L0.54293 8.69341C0.540183 8.69615 0.537284 8.69905 0.53469 8.7018C-0.179423 9.42003 -0.178203 10.5853 0.538199 11.3018C0.865501 11.6292 1.29763 11.8187 1.75982 11.8387C1.77874 11.8405 1.79766 11.8415 1.81674 11.8415H2.14175V17.8452C2.14175 19.0334 3.10855 20 4.29675 20H7.48859C7.81223 20 8.07453 19.7376 8.07453 19.4141V14.7071C8.07453 14.1649 8.51567 13.7239 9.05781 13.7239H10.9404C11.4826 13.7239 11.9236 14.1649 11.9236 14.7071V19.4141C11.9236 19.7376 12.1859 20 12.5095 20H15.7014C16.8897 20 17.8564 19.0334 17.8564 17.8452V11.8415H18.1579C18.6495 11.8415 19.1119 11.65 19.4599 11.3019C20.1771 10.5844 20.1774 9.41698 19.461 8.69905ZM18.6312 10.4733C18.5047 10.5998 18.3366 10.6696 18.1579 10.6696H17.2704C16.9468 10.6696 16.6845 10.9319 16.6845 11.2555V17.8452C16.6845 18.3872 16.2435 18.8282 15.7014 18.8282H13.0955V14.7071C13.0955 13.5189 12.1288 12.5521 10.9404 12.5521H9.05781C7.86946 12.5521 6.90266 13.5189 6.90266 14.7071V18.8282H4.29675C3.75476 18.8282 3.31363 18.3872 3.31363 17.8452V11.2555C3.31363 10.9319 3.05133 10.6696 2.72769 10.6696H1.85549C1.84634 10.669 1.83734 10.6685 1.82803 10.6684C1.65347 10.6653 1.48974 10.596 1.36706 10.4732C1.10613 10.2123 1.10613 9.78762 1.36706 9.52654C1.36691 9.52669 1.36721 9.52654 1.36706 9.52654L1.36782 9.52578L9.52595 1.36795C9.6523 1.24146 9.8203 1.17188 9.99913 1.17188C10.1778 1.17188 10.3458 1.24146 10.4723 1.36795L18.6286 9.5241C18.6298 9.52532 18.6312 9.52654 18.6324 9.52776C18.892 9.78914 18.8915 10.2129 18.6312 10.4733Z" fill="black"/>
</svg>
