<svg width="22" height="20" viewBox="0 0 22 20" fill="none" xmlns="http://www.w3.org/2000/svg">
<path d="M5.1841 0.522218L5.64484 2.66664H21.3556C21.5583 2.66664 21.7483 2.76508 21.8705 2.93174C21.9926 3.09893 22.0305 3.31507 21.9751 3.51629L5.1841 0.522218ZM5.1841 0.522218C5.11864 0.216838 4.8568 0 4.55467 0M5.1841 0.522218L4.55467 0M4.55467 0H0.644529M4.55467 0H0.644529M0.644529 0C0.28836 0 0 0.298261 0 0.666661M0.644529 0L0 0.666661M0 0.666661C0 1.03523 0.28836 1.33332 0.644529 1.33332M0 0.666661L0.644529 1.33332M0.644529 1.33332H4.03737H0.644529ZM18.9149 12.7166L18.9144 12.7183C18.8933 12.7956 18.8316 12.8334 18.7775 12.8334H7.13279C6.48621 12.8334 5.98826 13.3717 5.98826 14C5.98826 14.6284 6.48621 15.1667 7.13279 15.1667H18.7775C18.8418 15.1667 18.922 15.225 18.922 15.3334C18.922 15.4418 18.8419 15.5 18.7775 15.5H7.13279C6.35855 15.5 5.6992 14.8427 5.6992 14C5.6992 13.3774 6.06368 12.8503 6.56998 12.6226L6.93865 12.4568L6.85374 12.0615L4.52622 1.22829L4.44136 0.833322H4.03737H0.644529C0.580196 0.833322 0.5 0.775051 0.5 0.666661C0.5 0.558358 0.580279 0.5 0.644529 0.5H4.55467C4.61042 0.5 4.6769 0.541606 4.6952 0.627015L4.69525 0.627248L5.15599 2.77167L5.24085 3.16664H5.64484H21.3556C21.3937 3.16664 21.4359 3.1848 21.467 3.22701C21.4968 3.26818 21.5088 3.32612 21.493 3.38359L18.9149 12.7166Z" fill="#FFFED8" stroke="black"/>
<path d="M8.42204 19.5C7.64757 19.5 6.98828 18.8428 6.98828 18C6.98828 17.1574 7.6476 16.5 8.42204 16.5C9.19628 16.5 9.85563 17.1573 9.85563 18C9.85563 18.8428 9.1963 19.5 8.42204 19.5Z" fill="#FFFED8" stroke="black"/>
<path d="M17.4884 19.5C16.7141 19.5 16.0548 18.8428 16.0548 18C16.0548 17.1573 16.7142 16.5 17.4884 16.5C18.2628 16.5 18.922 17.1573 18.922 18C18.922 18.8429 18.2628 19.5 17.4884 19.5Z" fill="#FFFED8" stroke="black"/>
</svg>
