<svg width="24" height="40" viewBox="0 0 24 40" fill="none" xmlns="http://www.w3.org/2000/svg">
<path d="M7.52423 32.4585H15.9783V38.0456H7.52423V32.4585Z" fill="#FDAA8E"/>
<path d="M16.5859 25.6415V31.4014C16.5859 33.3299 15.0225 34.8932 13.0941 34.8932H9.54394C7.00211 34.8932 4.94159 32.8327 4.94159 30.2909V19.58C4.94159 18.7431 5.62001 18.0647 6.45692 18.0647C7.29382 18.0647 7.97225 18.7431 7.97225 19.58V23.3521C7.97225 24.6165 8.99728 25.6414 10.2616 25.6414H16.5859V25.6415Z" fill="#FFC6A1"/>
<path d="M14.083 30.1477H9.91695C9.74593 30.1477 9.60727 30.0091 9.60727 29.838V13.1077H14.3926V29.8381C14.3926 30.0091 14.2541 30.1477 14.083 30.1477Z" fill="#9F2C41"/>
<path d="M12 13.1077V30.1478H14.083C14.254 30.1478 14.3926 30.0091 14.3926 29.8381V13.1077H12Z" fill="#772C41"/>
<path d="M18.2902 18.6176C17.8829 17.8928 16.9645 17.6344 16.239 18.0406L13.4641 19.5941C12.7386 20.0003 12.4806 20.9172 12.8879 21.642C13.2952 22.3669 14.2136 22.6253 14.9391 22.219L17.7141 20.6655C18.4395 20.2594 18.6975 19.3425 18.2902 18.6176Z" fill="#FFC6A1"/>
<path d="M18.2902 22.0655C17.8829 21.3406 16.9645 21.0823 16.239 21.4885L13.4641 23.0421C12.7386 23.4482 12.4806 24.3652 12.8879 25.09C13.2952 25.8149 14.2136 26.0732 14.9391 25.667L17.7141 24.1134C18.4395 23.7073 18.6975 22.7904 18.2902 22.0655Z" fill="#FDAA8E"/>
<path d="M18.2902 25.5135C17.8829 24.7886 16.9645 24.5303 16.239 24.9365L13.4641 26.4901C12.7386 26.8962 12.4806 27.8131 12.8879 28.5379C13.2952 29.2628 14.2136 29.5212 14.9391 29.115L17.7141 27.5614C18.4395 27.1552 18.6975 26.2384 18.2902 25.5135Z" fill="#FFC6A1"/>
<path d="M18.2902 28.9614C17.8829 28.2365 16.9645 27.9782 16.239 28.3844L13.4641 29.938C12.7386 30.3441 12.4806 31.2611 12.8879 31.9859C13.2952 32.7107 14.2136 32.9691 14.9391 32.5629L17.7141 31.0093C18.4395 30.6031 18.6975 29.6862 18.2902 28.9614Z" fill="#FDAA8E"/>
<path d="M16.9542 39.6387H7.04579C6.87477 39.6387 6.73611 39.5001 6.73611 39.329V36.5162C6.73611 36.3451 6.87477 36.2065 7.04579 36.2065H16.9542C17.1253 36.2065 17.2639 36.3451 17.2639 36.5162V39.329C17.2639 39.5001 17.1253 39.6387 16.9542 39.6387Z" fill="#43809F"/>
<path d="M14.8712 36.2065V39.6387H16.9542C17.1252 39.6387 17.2639 39.5001 17.2639 39.329V36.5162C17.2639 36.3451 17.1252 36.2065 16.9542 36.2065H14.8712Z" fill="#3A7190"/>
<path d="M22.4025 14.6751H1.59755C0.715278 14.6751 0 13.9598 0 13.0775V1.59755C0 0.715277 0.715278 0 1.59755 0H22.4025C23.2847 0 24 0.715277 24 1.59755V13.0775C24 13.9599 23.2847 14.6751 22.4025 14.6751Z" fill="#EE4540"/>
<path d="M21.6 0V14.6751H22.4C23.2836 14.6751 24 13.9609 24 13.0799V1.59515C24 0.714194 23.2836 0 22.4 0L21.6 0Z" fill="#C72C41"/>
<path d="M11.8326 3.16786C11.5119 3.16786 11.2519 3.42784 11.2519 3.74851V11.0166C11.2519 11.3372 11.5119 11.5972 11.8326 11.5972C12.1533 11.5972 12.4132 11.3372 12.4132 11.0166V3.74851C12.4132 3.42784 12.1532 3.16786 11.8326 3.16786Z" fill="#F3F3F3"/>
<path d="M16.073 3.38286H14.0755C13.9213 3.38286 13.7734 3.44417 13.6644 3.55334C13.5556 3.6625 13.4945 3.81045 13.4948 3.96466C13.4948 3.96474 13.4999 6.67806 13.4999 7.48237C13.4999 8.45174 13.509 10.9932 13.5091 11.0187C13.5096 11.1727 13.5714 11.3203 13.6806 11.4287C13.7894 11.5367 13.9365 11.5973 14.0897 11.5973H14.0919C14.1521 11.5971 15.5745 11.5916 16.1415 11.5816C17.1336 11.5643 18.017 11.115 18.629 10.3163C19.1919 9.58159 19.5019 8.57793 19.5019 7.49011C19.5019 5.03344 18.124 3.38286 16.073 3.38286ZM16.1213 10.4205C15.7905 10.4263 15.1441 10.4307 14.6684 10.4332C14.6657 9.61883 14.6612 8.16227 14.6612 7.48229C14.6612 6.91303 14.6587 5.38802 14.6571 4.54415H16.073C17.7449 4.54415 18.3406 6.0659 18.3406 7.49003C18.3406 9.19264 17.428 10.3977 16.1213 10.4205Z" fill="#F3F3F3"/>
<path d="M8.89201 6.89451C9.23475 6.49913 9.44293 5.98398 9.44293 5.42091C9.44293 4.17856 8.43222 3.16785 7.18987 3.16785H5.07872C4.75805 3.16785 4.49808 3.42783 4.49808 3.7485V11.0166C4.49808 11.171 4.55963 11.3191 4.66902 11.428C4.77787 11.5364 4.9252 11.5972 5.07872 11.5972H5.08128C5.10071 11.5971 7.03015 11.5885 7.55862 11.5885C8.95751 11.5885 10.0957 10.4505 10.0957 9.05157C10.0956 8.14158 9.61371 7.34231 8.89201 6.89451ZM7.18987 4.32914C7.79181 4.32914 8.28164 4.8189 8.28164 5.42091C8.28164 6.02293 7.79188 6.51268 7.18987 6.51268C7.03488 6.51268 6.74308 6.51353 6.42489 6.51462H5.65937V4.32914H7.18987ZM7.55854 10.4273C7.21379 10.4273 6.27833 10.431 5.65929 10.4335V7.67893C5.89348 7.67792 6.16871 7.67684 6.4269 7.67598H7.55854C8.3171 7.67598 8.93428 8.29309 8.93428 9.05173C8.93428 9.81013 8.31717 10.4273 7.55854 10.4273Z" fill="#F3F3F3"/>
</svg>
