<svg width="20" height="20" viewBox="0 0 20 20" fill="none" xmlns="http://www.w3.org/2000/svg">
<path d="M2.77236 15.2413L2.7442 15.1174L2.66032 15.022C1.26377 13.4335 0.5 11.434 0.5 9.375C0.5 4.50961 4.71551 0.5 9.96094 0.5C15.2116 0.5 19.5 4.5145 19.5 9.375C19.5 14.2355 15.2116 18.25 9.96094 18.25C8.72778 18.25 7.53617 18.033 6.41088 17.6046L6.1036 17.4877L5.87445 17.7234C4.76885 18.861 3.287 19.5 1.75781 19.5C1.73994 19.5 1.73078 19.4956 1.72228 19.4892C1.71084 19.4806 1.69485 19.4626 1.68342 19.4331C1.65934 19.3709 1.67247 19.3133 1.7083 19.275C2.70508 18.2118 3.09961 16.6807 2.77236 15.2413ZM3.09375 9.375C3.09375 10.6542 4.07622 11.75 5.35156 11.75C6.62691 11.75 7.60938 10.6542 7.60938 9.375C7.60938 8.09583 6.62691 7 5.35156 7C4.07622 7 3.09375 8.09583 3.09375 9.375ZM7.78125 9.375C7.78125 10.6542 8.76372 11.75 10.0391 11.75C11.3144 11.75 12.2969 10.6542 12.2969 9.375C12.2969 8.09583 11.3144 7 10.0391 7C8.76372 7 7.78125 8.09583 7.78125 9.375ZM12.4688 9.375C12.4688 10.6542 13.4512 11.75 14.7266 11.75C16.0019 11.75 16.9844 10.6542 16.9844 9.375C16.9844 8.09583 16.0019 7 14.7266 7C13.4512 7 12.4688 8.09583 12.4688 9.375Z" fill="#FFFED8" stroke="black"/>
</svg>
