<svg width="20" height="21" viewBox="0 0 20 21" fill="none" xmlns="http://www.w3.org/2000/svg">
<path d="M9.96094 0C4.46836 0 0 4.4156 0 9.84375C0 12.1368 0.810234 14.3587 2.2848 16.1198C2.57664 17.4675 2.22242 18.8954 1.34352 19.8797C0.976016 20.2914 1.2359 21 1.75781 21C3.4275 21 5.03711 20.2675 6.23301 18.9755C7.41633 19.4485 8.66832 19.6875 9.96094 19.6875C15.4535 19.6875 20 15.2719 20 9.84375C20 4.4156 15.4535 0 9.96094 0ZM5.35156 11.8125C4.38227 11.8125 3.59375 10.9294 3.59375 9.84375C3.59375 8.75814 4.38227 7.875 5.35156 7.875C6.32086 7.875 7.10938 8.75814 7.10938 9.84375C7.10938 10.9294 6.32086 11.8125 5.35156 11.8125ZM10.0391 11.8125C9.06977 11.8125 8.28125 10.9294 8.28125 9.84375C8.28125 8.75814 9.06977 7.875 10.0391 7.875C11.0084 7.875 11.7969 8.75814 11.7969 9.84375C11.7969 10.9294 11.0084 11.8125 10.0391 11.8125ZM14.7266 11.8125C13.7573 11.8125 12.9688 10.9294 12.9688 9.84375C12.9688 8.75814 13.7573 7.875 14.7266 7.875C15.6959 7.875 16.4844 8.75814 16.4844 9.84375C16.4844 10.9294 15.6959 11.8125 14.7266 11.8125Z" fill="#686666"/>
</svg>
