<svg width="35" height="41" viewBox="0 0 35 41" fill="none" xmlns="http://www.w3.org/2000/svg">
<path d="M35 20.5C35 27.5369 31.9728 33.7464 27.3607 37.438C24.5528 39.6855 21.1578 41 17.5 41C15.905 41 14.3607 40.7498 12.8922 40.2821C12.2143 40.0662 11.5529 39.8027 10.91 39.4964C4.51145 36.4473 0 29.0908 0 20.5C0 9.17815 7.83501 0 17.5 0C27.165 0 35 9.17815 35 20.5Z" fill="#374266"/>
<path d="M28.7462 2.12846H6.25327C4.94993 2.12846 3.89337 3.36614 3.89337 4.89291V18.6915C3.89337 20.2183 4.94993 21.456 6.25327 21.456H28.7462C30.0496 21.456 31.1061 20.2183 31.1061 18.6915V4.89291C31.1061 3.36614 30.0496 2.12846 28.7462 2.12846Z" fill="#FFE261"/>
<path d="M27.86 29.0757V33.8652C27.86 35.0416 27.69 36.2692 27.3607 37.4381C24.5528 39.6855 21.1578 41 17.5 41C15.1686 41 12.9442 40.4662 10.91 39.4964C9.9157 36.9008 9.90353 34.0065 9.90353 34.0065C9.90353 33.9798 9.90209 31.5231 9.38284 30.4253C8.84068 29.2807 9.19287 27.8381 10.1707 27.2022C11.1486 26.5671 12.38 26.9805 12.9221 28.1251C13.5978 29.5526 13.6807 30.2588 13.6807 30.2588V19.1203C13.6807 18.5479 13.8785 18.0283 14.1999 17.6526C14.5207 17.2761 14.9642 17.0443 15.4527 17.0443C16.4313 17.0443 17.2241 17.9731 17.2249 19.1186V26.4702C17.2249 25.3238 18.0185 24.3942 18.9977 24.3942C19.487 24.3942 19.9299 24.6268 20.2506 25.0025C20.5714 25.3782 20.7699 25.897 20.7699 26.4702V26.9998C20.7699 26.4266 20.9685 25.907 21.2891 25.5313C21.6099 25.1556 22.0527 24.923 22.5427 24.923C23.032 24.923 23.4748 25.1557 23.7956 25.5313C24.1163 25.907 24.3148 26.4266 24.3148 26.9998V29.0757C24.3148 27.9294 25.1084 26.9998 26.0877 26.9998C26.577 26.9998 27.0198 27.2324 27.3406 27.6081C27.6614 27.9838 27.86 28.5025 27.86 29.0757Z" fill="#FFDCBF"/>
<path d="M14.5299 34.0823C14.0668 34.1072 13.6806 33.6708 13.6806 33.1277V19.1204C13.6806 18.5472 13.8792 18.0285 14.1999 17.6528C14.5213 17.2762 14.9641 17.0445 15.4535 17.0445C15.7499 17.0445 16.0299 17.1299 16.2749 17.2813C16.1148 17.3783 15.9692 17.5047 15.8427 17.6528C15.522 18.0285 15.3234 18.5472 15.3234 19.1204V33.1272C15.3234 33.6346 14.9849 34.0563 14.5521 34.0811C14.5448 34.0815 14.5374 34.0819 14.5299 34.0823Z" fill="#FCBB8D"/>
<path d="M18.0745 30.655C17.6114 30.6799 17.2252 30.2435 17.2252 29.7004V26.4702C17.2252 25.897 17.4238 25.3782 17.7445 25.0025C18.0659 24.626 18.5087 24.3942 18.9981 24.3942C19.2945 24.3942 19.5745 24.4796 19.8195 24.631C19.6594 24.7281 19.5138 24.8544 19.3873 25.0025C19.0665 25.3782 18.868 25.897 18.868 26.4702V29.6997C18.868 30.2072 18.5294 30.6289 18.0967 30.6537C18.0894 30.6542 18.082 30.6546 18.0745 30.655Z" fill="#FCBB8D"/>
<path d="M21.6195 29.9292C21.1564 29.9541 20.7702 29.5177 20.7702 28.9747V26.9997C20.7702 26.4265 20.9688 25.9077 21.2895 25.532C21.6109 25.1555 22.0537 24.9237 22.543 24.9237C22.8394 24.9237 23.1194 25.0091 23.3644 25.1605C23.2044 25.2576 23.0587 25.3839 22.9323 25.532C22.6115 25.9077 22.413 26.4265 22.413 26.9997V28.974C22.413 29.4814 22.0744 29.9031 21.6416 29.928C21.6344 29.9284 21.627 29.9288 21.6195 29.9292Z" fill="#FCBB8D"/>
<path d="M25.1645 30.7504C24.7013 30.7753 24.3152 30.3389 24.3152 29.7958V29.076C24.3152 28.5028 24.5138 27.984 24.8344 27.6083C25.1559 27.2318 25.5987 27 26.088 27C26.3844 27 26.6644 27.0854 26.9094 27.2368C26.7494 27.3339 26.6037 27.4602 26.4773 27.6083C26.1565 27.984 25.958 28.5028 25.958 29.076V29.7951C25.958 30.3026 25.6194 30.7243 25.1866 30.7491C25.1793 30.7496 25.1719 30.75 25.1645 30.7504Z" fill="#FCBB8D"/>
<path d="M12.8922 40.2821C12.2143 40.0662 11.5529 39.8027 10.91 39.4964C9.91574 36.9008 9.90432 34.0065 9.90432 34.0065C9.90432 33.9931 9.90364 31.5247 9.38288 30.4245C8.84072 29.2806 9.19359 27.8373 10.1707 27.2022C10.7479 26.8274 11.4143 26.8173 11.9743 27.1085C11.92 27.1369 11.8664 27.1679 11.8136 27.2022C10.8365 27.8373 10.4836 29.2806 11.0258 30.4245C11.5465 31.5247 11.5472 33.9931 11.5472 34.0065C11.5471 34.0065 11.5614 37.525 12.8922 40.2821Z" fill="#FCBB8D"/>
<path d="M8.41406 7.40433C8.41406 7.02468 8.75012 6.82785 9.0982 6.82785H11.4148C12.6632 6.82785 13.8275 7.30592 13.8275 9.30258C13.8275 10.4556 13.4434 11.2148 12.8072 11.5383C13.5394 11.8757 14.0436 12.4241 14.0436 13.8303V14.1255C14.0436 16.319 12.9994 17.1064 11.643 17.1064H9.09827C8.67813 17.1064 8.41413 16.8392 8.41413 16.5439V7.40433H8.41406ZM9.96247 10.8211H11.3068C11.9549 10.8211 12.2671 10.329 12.2671 9.61185C12.2671 8.88073 11.907 8.43069 11.2948 8.43069H9.96254V10.8211H9.96247ZM11.3189 15.5034C12.051 15.5034 12.4832 15.0395 12.4832 13.9708V13.7459C12.4832 12.6491 12.051 12.2554 11.3189 12.2554H9.96247V15.5034H11.3189Z" fill="#F58D2C"/>
<path d="M19.3249 7.39032C19.3249 6.99666 19.709 6.82785 20.1051 6.82785C20.4892 6.82785 20.8853 6.99666 20.8853 7.39032V13.9708C20.8853 16.3189 19.6129 17.1908 18.0045 17.1908C16.3841 17.1908 15.1237 16.3189 15.1237 13.9708V7.39032C15.1237 6.99666 15.5078 6.82785 15.904 6.82785C16.288 6.82785 16.6842 6.99666 16.6842 7.39032V13.9708C16.6842 15.0675 17.1763 15.5878 18.0045 15.5878C18.8328 15.5878 19.3248 15.0676 19.3248 13.9708V7.39032H19.3249Z" fill="#F58D2C"/>
<path d="M24.2341 12.9865C24.2341 12.9162 24.2221 12.846 24.1981 12.8037L21.7135 7.76989C21.6895 7.69958 21.6774 7.62935 21.6774 7.58707C21.6774 7.13719 22.2896 6.82785 22.7097 6.82785C22.9617 6.82785 23.0818 6.94028 23.1899 7.19341L25.0143 11.257L26.8509 7.19341C26.9589 6.95437 27.067 6.82785 27.319 6.82785C27.7391 6.82785 28.3513 7.13719 28.3513 7.58707C28.3513 7.62927 28.3513 7.6995 28.3153 7.76989L25.8426 12.8037C25.8186 12.8459 25.7946 12.9161 25.7946 12.9865V16.5299C25.7946 16.9095 25.4105 17.1064 25.0144 17.1064C24.6303 17.1064 24.2342 16.9094 24.2342 16.5299L24.2341 12.9865Z" fill="#F58D2C"/>
</svg>
