<svg width="34" height="40" viewBox="0 0 34 40" fill="none" xmlns="http://www.w3.org/2000/svg">
<path d="M26.2069 36.5517V37.931C26.2069 39.0737 25.2806 40 24.1379 40H2.06896C0.926307 40 0 39.0737 0 37.931V12.4138C0 11.6966 1.31034 11.0414 3.44827 10.5517L26.2069 36.5517Z" fill="#2980BA"/>
<path d="M29.6551 33.1034V34.4828C29.6551 35.6254 28.7288 36.5517 27.5862 36.5517H5.51721C4.37455 36.5517 3.44824 35.6254 3.44824 34.4828V8.96553C3.44824 8.24829 4.75859 7.59312 6.89652 7.10346L29.6551 33.1034Z" fill="#5D4C72"/>
<path d="M26.5586 3.13106L26.2758 0.613816C26.2703 0.553886 26.254 0.495458 26.2275 0.441403C26.127 0.174721 25.8712 -0.00130771 25.5862 2.38082e-05H14.4138C14.1496 -0.00217617 13.9078 0.148246 13.7931 0.38623C13.7557 0.456984 13.7323 0.534242 13.7241 0.613816L13.4413 3.13106C9.531 3.60692 6.89651 4.49657 6.89651 5.51726V31.0345C6.89651 32.1771 7.82282 33.1035 8.96548 33.1035H31.0344C32.1771 33.1035 33.1034 32.1771 33.1034 31.0345V5.51726C33.1034 4.49657 30.4689 3.60692 26.5586 3.13106Z" fill="#26B99A"/>
<path d="M33.1034 5.51726V31.0345C33.1034 32.1771 32.1771 33.1035 31.0345 33.1035H17.2414V10.6966C18.1405 10.4536 19.0687 10.3352 20 10.3448C23.5034 10.3448 25.0069 11.7931 26.6138 12.269C26.8356 12.3294 27.073 12.2765 27.2481 12.1276C27.4233 11.9786 27.5137 11.7528 27.4896 11.5242L26.5586 3.13106C30.4689 3.60692 33.1034 4.49657 33.1034 5.51726Z" fill="#14A085"/>
<path d="M27.4897 11.5242C27.5137 11.7528 27.4233 11.9786 27.2482 12.1276C27.073 12.2765 26.8356 12.3294 26.6138 12.269C25.0069 11.7931 23.5034 10.3448 20 10.3448C24.8828 10.3448 26.0276 2.42072 26.2276 0.441406C26.254 0.495461 26.2704 0.55389 26.2759 0.61382L26.5586 3.13106L27.4897 11.5242Z" fill="#81CCB8"/>
<path d="M26.2276 0.441403C26.0276 2.42071 24.8828 10.3448 20 10.3448C16.4207 10.3448 14.8552 6.08968 14.1931 3.0414C14.0134 2.25448 13.8798 1.45772 13.7931 0.655196V0.38623C13.9079 0.148246 14.1496 -0.00217617 14.4138 2.38082e-05H25.5862C25.8712 -0.00130771 26.127 0.174721 26.2276 0.441403Z" fill="#33907C"/>
<path d="M20 10.3448C19.0687 10.3352 18.1404 10.4536 17.2414 10.6966C15.5517 11.1517 14.4896 11.9448 13.3862 12.269C13.1643 12.3294 12.927 12.2765 12.7518 12.1276C12.5767 11.9786 12.4863 11.7528 12.5103 11.5242L13.4414 3.13106L13.7241 0.613817C13.7323 0.534242 13.7557 0.456985 13.7931 0.38623V0.655196C13.8798 1.45772 14.0133 2.25448 14.1931 3.0414C14.8551 6.08968 16.4207 10.3448 20 10.3448Z" fill="#81CCB8"/>
<path d="M21.3793 17.2414C22.1411 17.2414 22.7586 16.6239 22.7586 15.8621C22.7586 15.1003 22.1411 14.4828 21.3793 14.4828C20.6175 14.4828 20 15.1003 20 15.8621C20 16.6239 20.6175 17.2414 21.3793 17.2414Z" fill="#BDC3C7"/>
<path d="M21.3793 23.4483C22.1411 23.4483 22.7586 22.8307 22.7586 22.069C22.7586 21.3072 22.1411 20.6897 21.3793 20.6897C20.6175 20.6897 20 21.3072 20 22.069C20 22.8307 20.6175 23.4483 21.3793 23.4483Z" fill="#BDC3C7"/>
<path d="M21.3793 29.6552C22.1411 29.6552 22.7586 29.0376 22.7586 28.2759C22.7586 27.5141 22.1411 26.8966 21.3793 26.8966C20.6175 26.8966 20 27.5141 20 28.2759C20 29.0376 20.6175 29.6552 21.3793 29.6552Z" fill="#BDC3C7"/>
</svg>
