<svg width="34" height="34" viewBox="0 0 34 34" fill="none" xmlns="http://www.w3.org/2000/svg">
<path d="M23.1228 24.833L16.9002 25.5171L10.7405 24.833C13.6541 24.833 14.6761 22.7472 14.8752 19.9875C14.9019 19.6222 14.9135 19.2452 14.9135 18.8601V18.5994C15.5593 18.7383 16.2537 18.8129 17 18.8129C17.7197 18.8129 18.3915 18.7438 19.0181 18.6145V18.8601C19.0181 19.25 19.0291 19.6317 19.0551 20.0012C19.2439 22.754 20.214 24.833 23.1228 24.833Z" fill="#FAD207"/>
<path d="M25.4487 26.2819V28.5956L16.9316 29.2797L8.41449 28.5956V26.2819C8.41449 25.4815 9.06302 24.833 9.86342 24.833H23.9998C24.6531 24.833 25.2052 25.2654 25.3858 25.8592C25.4268 25.9932 25.4487 26.1349 25.4487 26.2819Z" fill="#FAD207"/>
<path d="M25.3857 25.8592H10.1248C9.74712 25.8592 9.44065 26.1656 9.44065 26.5433V28.5956H8.41449V26.2819C8.41449 25.4815 9.06302 24.833 9.86342 24.833H23.9998C24.6531 24.833 25.2051 25.2654 25.3857 25.8592V25.8592Z" fill="#FAA515"/>
<path d="M19.0551 20.0012C18.397 20.1202 17.7074 20.1811 17 20.1811C16.268 20.1811 15.5545 20.1161 14.8752 19.9875C14.9019 19.6222 14.9135 19.2453 14.9135 18.8601V18.5995L17 18.5181L19.0181 18.6145V18.8601C19.0181 19.2501 19.0291 19.6318 19.0551 20.0012V20.0012Z" fill="#FAA515"/>
<path d="M34 6.9437C34 12.017 29.8721 16.1449 24.7988 16.1449H23.4648C24.0634 15.5258 24.5771 14.8287 25.0184 14.0892C28.5135 13.9831 31.3853 11.3569 31.8745 7.96986H27.2164C27.3608 7.22487 27.4627 6.52845 27.5345 5.91754H32.9738C33.5403 5.91754 34 6.37726 34 6.9437V6.9437Z" fill="#FAD207"/>
<path d="M26.7198 13.8306C26.5528 14.1624 26.377 14.4825 26.193 14.7904C25.9091 15.2665 25.604 15.7153 25.2804 16.1319C25.121 16.1408 24.9602 16.1449 24.7988 16.1449H23.4648L23.6164 15.1622L25.0183 14.0892C25.0184 14.0892 26.1759 13.9824 26.7198 13.8306Z" fill="#FAA515"/>
<path d="M28.9116 5.91754C28.9055 5.97022 28.8993 6.02358 28.8932 6.07762C28.8179 6.71521 28.7228 7.35074 28.6086 7.96985H27.2164L26.7108 6.9437L27.5345 5.91754H28.9116Z" fill="#FAA515"/>
<path d="M34 6.9437C34 11.8556 30.1307 15.8808 25.2804 16.1319C25.604 15.7153 25.9091 15.2665 26.193 14.7904C26.377 14.4825 26.5528 14.1624 26.7197 13.8306C29.4117 13.0787 31.4674 10.7877 31.8745 7.96986H28.6086C28.7228 7.35074 28.8179 6.71521 28.8931 6.07762C28.8993 6.02358 28.9055 5.97022 28.9116 5.91754H32.9738C33.5403 5.91754 34 6.37726 34 6.9437V6.9437Z" fill="#FAD207"/>
<path d="M10.5352 16.1449H9.20121C4.12789 16.1449 0 12.017 0 6.9437C0 6.37726 0.459718 5.91754 1.02616 5.91754H6.46547C6.5373 6.52845 6.63924 7.22487 6.78358 7.96986H2.12551C2.61465 11.3569 5.48652 13.9831 8.98161 14.0892C9.42286 14.8287 9.93662 15.5258 10.5352 16.1449V16.1449Z" fill="#FAD207"/>
<path d="M6.78359 7.96985H5.39144C5.27719 7.35006 5.1821 6.71452 5.10685 6.07762C5.10069 6.02358 5.09454 5.97022 5.08838 5.91754H6.46548L7.29291 6.96792L6.78359 7.96985Z" fill="#FAA515"/>
<path d="M10.5352 16.1449H9.20124C9.03979 16.1449 8.87903 16.1408 8.71963 16.1319C8.39605 15.7153 8.09094 15.2665 7.80703 14.7904C7.62301 14.4825 7.44719 14.1624 7.28027 13.8306C7.82414 13.9824 8.98164 14.0892 8.98164 14.0892L10.2585 14.9924L10.5352 16.1449Z" fill="#FAA515"/>
<path d="M28.1167 28.5956H5.88328C5.12762 28.5956 4.51508 29.2081 4.51508 29.9638V32.6318C4.51508 33.3875 5.12762 34 5.88328 34H28.1167C28.8723 34 29.4849 33.3875 29.4849 32.6318V29.9638C29.4849 29.2081 28.8723 28.5956 28.1167 28.5956Z" fill="#50758D"/>
<path d="M7.25149 34H5.88328C5.12735 34 4.51508 33.3877 4.51508 32.6318V29.9638C4.51508 29.2079 5.12735 28.5956 5.88328 28.5956V32.6318C5.88328 33.3877 6.49556 34 7.25149 34Z" fill="#2B597F"/>
<path d="M27.7062 3.48895C27.7062 3.48895 27.7062 4.00887 27.6392 4.85716C27.6146 5.16911 27.5804 5.52622 27.5345 5.91752C27.4627 6.52843 27.3608 7.22485 27.2164 7.96984C26.8415 9.89286 26.1821 12.1401 25.0184 14.0892C24.5771 14.8287 24.0634 15.5258 23.4648 16.1449C22.3196 17.3298 20.8652 18.2328 19.0181 18.6145C18.3915 18.7438 17.7197 18.8129 17 18.8129C16.2536 18.8129 15.5593 18.7383 14.9135 18.5995C13.0992 18.2109 11.6667 17.3154 10.5352 16.1449C9.93662 15.5258 9.42286 14.8287 8.98161 14.0892C7.81795 12.1401 7.15847 9.89286 6.78358 7.96984C6.63924 7.22485 6.5373 6.52843 6.46547 5.91752C6.41964 5.52622 6.38543 5.16911 6.3608 4.85716C6.29376 4.00887 6.29376 3.48895 6.29376 3.48895H27.7062Z" fill="#FAD207"/>
<path d="M17.3448 6.51006L18.1853 9.09686H20.9052C21.2565 9.09686 21.4024 9.54625 21.1183 9.75271L18.9178 11.3515L19.7583 13.9383C19.8668 14.2724 19.4846 14.5501 19.2004 14.3437L17 12.7449L14.7995 14.3437C14.5154 14.5501 14.133 14.2723 14.2416 13.9383L15.0821 11.3515L12.8816 9.75271C12.5975 9.54625 12.7435 9.09686 13.0947 9.09686H15.8146L16.6551 6.51006C16.7637 6.17601 17.2363 6.17601 17.3448 6.51006V6.51006Z" fill="#FC4755"/>
<path d="M23.2596 31.8451H10.7404C10.457 31.8451 10.2274 31.6154 10.2274 31.332C10.2274 31.0486 10.457 30.8189 10.7404 30.8189H23.2596C23.543 30.8189 23.7726 31.0486 23.7726 31.332C23.7726 31.6154 23.543 31.8451 23.2596 31.8451Z" fill="#2B597F"/>
<path d="M27.7062 3.48891L16.559 2.80481L7.66197 3.48891H6.29376C6.29376 3.48891 6.29376 4.00883 6.3608 4.85712C6.38543 5.16907 6.41964 5.52618 6.46547 5.91748C6.5373 6.52839 6.63924 7.22481 6.78358 7.9698C7.15847 9.89282 7.81795 12.1401 8.98161 14.0891C9.42286 14.8286 9.93662 15.5257 10.5352 16.1448C11.6667 17.3153 13.0992 18.2108 14.9135 18.5994C15.5593 18.7383 16.2536 18.8129 17 18.8129C17.2326 18.8129 17.4597 18.806 17.6821 18.7916C17.1915 18.7602 16.725 18.6945 16.2817 18.5994C14.4674 18.2108 13.0349 17.3153 11.9034 16.1448C11.3048 15.5257 10.7911 14.8286 10.3498 14.0891C9.18616 12.1401 8.52668 9.89282 8.15179 7.9698C8.00744 7.22481 7.90551 6.52839 7.83368 5.91748C7.8332 5.91359 7.83279 5.90969 7.83231 5.90579C7.76712 5.34708 8.20522 4.85712 8.76769 4.85712H27.6392C27.7062 4.00883 27.7062 3.48891 27.7062 3.48891V3.48891Z" fill="#FAA515"/>
<path d="M6.25954 0H27.7404C28.7038 0 29.4849 0.781042 29.4849 1.74447C29.4849 2.70789 28.7038 3.48893 27.7404 3.48893H6.25954C5.29612 3.48893 4.51508 2.70789 4.51508 1.74447C4.51508 0.781042 5.29612 0 6.25954 0Z" fill="#FAD207"/>
<path d="M7.62775 3.48893H6.25954C5.29632 3.48893 4.51508 2.70769 4.51508 1.74447C4.51508 1.26286 4.71073 0.826398 5.0261 0.511026C5.34147 0.195654 5.77793 0 6.25954 0H7.62775C7.14614 0 6.70968 0.195654 6.39431 0.511026C6.07894 0.826398 5.88328 1.26286 5.88328 1.74447C5.88328 2.70769 6.66453 3.48893 7.62775 3.48893Z" fill="#FAA515"/>
</svg>
