<svg width="15" height="15" viewBox="0 0 15 15" fill="none" xmlns="http://www.w3.org/2000/svg">
<path d="M14.831 3.05842L10.9848 0.12873C10.8767 0.0463184 10.7299 0 10.5769 0H2.11538C0.948962 0 0 0.722842 0 1.61133V13.3887C0 14.2772 0.948962 15 2.11538 15H12.8846C14.051 15 15 14.2772 15 13.3887V3.36914C15 3.2526 14.9392 3.14083 14.831 3.05842ZM11.1538 1.50038L13.0303 2.92969H11.1538V1.50038ZM12.8846 14.1211H2.11538C1.58519 14.1211 1.15385 13.7925 1.15385 13.3887V1.61133C1.15385 1.20747 1.58519 0.878906 2.11538 0.878906H10V3.36914C10 3.61184 10.2583 3.80859 10.5769 3.80859H13.8462V13.3887C13.8462 13.7925 13.4148 14.1211 12.8846 14.1211Z" fill="black"/>
<path d="M11.3461 5.91797C10.6171 5.91797 9.96167 5.60941 9.63567 5.11277L9.55448 4.98905C9.45675 4.84014 9.25698 4.74609 9.03844 4.74609H5.96152C5.74298 4.74609 5.54321 4.84014 5.44548 4.98902L5.36429 5.11272C5.03829 5.60941 4.38287 5.91797 3.65383 5.91797C3.33521 5.91797 3.0769 6.11473 3.0769 6.35742V8.86515C3.0769 9.8511 3.48533 10.7904 4.25798 11.5814C5.03063 12.3725 6.0944 12.9403 7.33421 13.2236C7.38829 13.236 7.44414 13.2422 7.49998 13.2422C7.55583 13.2422 7.61167 13.236 7.66575 13.2236C8.90556 12.9403 9.96933 12.3725 10.742 11.5814C11.5146 10.7904 11.9231 9.8511 11.9231 8.86515V6.35742C11.9231 6.11473 11.6648 5.91797 11.3461 5.91797ZM10.7692 8.86515C10.7692 10.4547 9.46264 11.8354 7.49998 12.3415C5.53733 11.8354 4.23075 10.4547 4.23075 8.86515V6.75592C5.10387 6.63038 5.86294 6.22271 6.31248 5.62497H8.68748C9.13702 6.22269 9.8961 6.63038 10.7692 6.75592V8.86515Z" fill="black"/>
<path d="M8.72388 7.85473L6.95611 9.20124L6.27619 8.68336C6.05092 8.51174 5.68561 8.51174 5.4603 8.68336C5.23499 8.85498 5.23499 9.13321 5.4603 9.30484L6.54815 10.1335C6.6608 10.2193 6.80846 10.2622 6.95607 10.2622C7.10369 10.2622 7.25138 10.2193 7.36399 10.1335L9.53969 8.4762C9.76499 8.30458 9.76499 8.02635 9.53969 7.85473C9.31446 7.68311 8.94915 7.68311 8.72388 7.85473Z" fill="black"/>
</svg>
