<svg width="15" height="15" viewBox="0 0 15 15" fill="none" xmlns="http://www.w3.org/2000/svg">
<path d="M14.3182 7.56291V5.45469C14.3182 4.73981 13.7637 4.15844 13.0631 4.10206L11.1052 0.68237C10.9238 0.366096 10.6308 0.140045 10.2802 0.0461797C9.93131 -0.0470468 9.56645 0.00191551 9.25417 0.18367L2.54243 4.09106H1.36365C0.61159 4.09106 0 4.70261 0 5.45469V13.6364C0 14.3884 0.611558 15 1.36365 15H12.9545C13.7066 15 14.3182 14.3885 14.3182 13.6364V11.5282C14.7141 11.387 15 11.0121 15 10.5682V8.52282C15 8.07897 14.7141 7.70411 14.3182 7.56291ZM12.2708 4.09106H9.29945L11.528 2.79363L12.2708 4.09106ZM11.1893 2.20196L7.94437 4.09106H6.59843L10.8527 1.61419L11.1893 2.20196ZM9.59739 0.772912C9.75153 0.682689 9.93163 0.658719 10.1038 0.704678C10.2779 0.751275 10.423 0.863805 10.5133 1.02127L10.514 1.02252L5.24342 4.09106H3.89754L9.59739 0.772912ZM13.6364 13.6364C13.6364 14.0122 13.3304 14.3182 12.9545 14.3182H1.36365C0.987793 14.3182 0.681839 14.0122 0.681839 13.6364V5.45469C0.681839 5.07884 0.987793 4.77289 1.36365 4.77289H12.9545C13.3304 4.77289 13.6364 5.07884 13.6364 5.45469V7.50011H11.5909C10.463 7.50011 9.54545 8.41761 9.54545 9.54553C9.54545 10.6735 10.463 11.591 11.5909 11.591H13.6364V13.6364V13.6364ZM14.3182 10.5682C14.3182 10.7563 14.1654 10.9092 13.9773 10.9092H11.5909C10.8388 10.9092 10.2273 10.2976 10.2273 9.54553C10.2273 8.79349 10.8388 8.18191 11.5909 8.18191H13.9773C14.1654 8.18191 14.3182 8.33471 14.3182 8.52282V10.5682V10.5682Z" fill="black"/>
<path d="M11.5908 8.86377C11.215 8.86377 10.909 9.16972 10.909 9.54557C10.909 9.92141 11.215 10.2274 11.5908 10.2274C11.9667 10.2274 12.2726 9.92141 12.2726 9.54557C12.2727 9.16972 11.9667 8.86377 11.5908 8.86377Z" fill="black"/>
</svg>
