<svg width="20" height="21" viewBox="0 0 20 21" fill="none" xmlns="http://www.w3.org/2000/svg">
<path d="M19.379 14.7989C17.867 13.6806 17 12.0461 17 10.3145V7.875C17 4.79588 14.386 2.247 11 1.82V0.875C11 0.391125 10.552 0 10 0C9.448 0 9 0.391125 9 0.875V1.82C5.613 2.247 3 4.79588 3 7.875V10.3145C3 12.0461 2.133 13.6806 0.612 14.8059C0.223 15.0972 0 15.5208 0 15.9688C0 16.8131 0.785 17.5 1.75 17.5H18.25C19.215 17.5 20 16.8131 20 15.9688C20 15.5208 19.777 15.0972 19.379 14.7989Z" fill="#686666"/>
<path d="M9.99999 21C11.811 21 13.326 19.8704 13.674 18.375H6.32599C6.67399 19.8704 8.18899 21 9.99999 21Z" fill="#686666"/>
</svg>
