<svg width="15" height="15" viewBox="0 0 15 15" fill="none" xmlns="http://www.w3.org/2000/svg">
<path d="M3.35732 15C3.19297 15 3.02978 14.9465 2.8905 14.8414C2.63106 14.6452 2.50986 14.308 2.58047 13.9825L3.54546 9.54688L0.272828 6.55204C0.032267 6.3329 -0.0596313 5.98586 0.0391336 5.66832C0.137899 5.35138 0.406612 5.12698 0.724766 5.09629L5.05486 4.68608L6.76682 0.505509C6.89305 0.198358 7.18054 0 7.49995 0C7.81936 0 8.10684 0.198358 8.23308 0.504793L9.94504 4.68608L14.2744 5.09629C14.5933 5.12627 14.862 5.35138 14.9608 5.66832C15.0595 5.98526 14.9682 6.3329 14.7276 6.55204L11.455 9.54628L12.42 13.9818C12.4907 14.308 12.3694 14.6452 12.1101 14.8408C11.8513 15.0364 11.5063 15.0515 11.2338 14.8806L7.49995 12.5522L3.76611 14.8819C3.63988 14.9601 3.49923 15 3.35732 15V15ZM7.49995 11.5492C7.64186 11.5492 7.7824 11.589 7.90874 11.6672L11.4326 13.8665L10.5218 9.67991C10.4568 9.38196 10.5538 9.07086 10.7744 8.86928L13.8645 6.04139L9.77624 5.65399C9.48189 5.62593 9.22874 5.43282 9.11372 5.14979L7.49995 1.2046L5.88423 5.15039C5.77048 5.43151 5.51733 5.62461 5.22366 5.65268L1.13482 6.04008L4.2248 8.86797C4.44613 9.07015 4.54295 9.38064 4.47738 9.67931L3.56732 13.8657L7.09116 11.6672C7.21739 11.589 7.35804 11.5492 7.49995 11.5492V11.5492ZM5.02178 4.76693C5.02178 4.76693 5.02178 4.76765 5.0211 4.76824L5.02178 4.76693ZM9.97686 4.76502L9.97754 4.76633C9.97754 4.76562 9.97754 4.76562 9.97686 4.76502Z" fill="black"/>
</svg>
