<svg width="34" height="34" viewBox="0 0 34 34" fill="none" xmlns="http://www.w3.org/2000/svg">
<path d="M34 6.84913V26.268C34 27.1269 33.4506 27.85 32.7039 28.0605C32.5602 28.1014 32.4093 28.1229 32.254 28.1229H2.79973C1.83529 28.1229 1.05365 27.2926 1.05365 26.268V6.84913C1.05365 5.82452 1.83529 4.9942 2.79973 4.9942H32.254C32.4093 4.9942 32.5602 5.01579 32.7039 5.05665C33.4506 5.26712 34 5.99028 34 6.84913Z" fill="#E6E6E6"/>
<path d="M33.9999 6.84888V8.69456H1.05359V6.84888C1.05359 5.82428 1.83523 4.99396 2.7996 4.99396H32.2539C33.2182 4.99403 33.9999 5.82436 33.9999 6.84888Z" fill="#B3B3B3"/>
<path d="M11.6836 9.81018H3.05511V11.0847H11.6836V9.81018Z" fill="#999999"/>
<path d="M32.1032 16.1138H18.6249V26.2697H32.1032V16.1138Z" fill="white"/>
<path d="M31.535 24.3606H19.2708V25.6351H31.535V24.3606Z" fill="#29ABE2"/>
<path d="M20.7948 21.8943H19.2708V23.1689H20.7948V21.8943Z" fill="#FC7A51"/>
<path d="M25.4392 19.428H19.2708V20.7026H25.4392V19.428Z" fill="#F9DE58"/>
<path d="M29.8659 16.9619H19.2708V18.2364H29.8659V16.9619Z" fill="#999999"/>
<path d="M3.44828 8.00074C4.04946 8.00074 4.53681 7.48299 4.53681 6.8443C4.53681 6.20562 4.04946 5.68787 3.44828 5.68787C2.84709 5.68787 2.35974 6.20562 2.35974 6.8443C2.35974 7.48299 2.84709 8.00074 3.44828 8.00074Z" fill="#FC7A51"/>
<path d="M6.35099 8.00074C6.95217 8.00074 7.43952 7.48299 7.43952 6.8443C7.43952 6.20562 6.95217 5.68787 6.35099 5.68787C5.7498 5.68787 5.26245 6.20562 5.26245 6.8443C5.26245 7.48299 5.7498 8.00074 6.35099 8.00074Z" fill="#F9DE58"/>
<path d="M33.6499 5.73467C33.8696 6.0449 33.9998 6.43077 33.9998 6.84894V8.69461H32.3075C32.3104 11.4623 30.8982 14.1363 28.4291 15.5058C28.2765 15.5768 28.1226 15.6429 27.9672 15.7042L28.1685 16.1138H32.1033V26.2698H21.6664L22.198 28.123H32.2539C32.4092 28.123 32.5601 28.1014 32.7038 28.0605C33.4506 27.8501 33.9999 27.1269 33.9999 26.2681V6.84917C34 6.43092 33.8697 6.04498 33.6499 5.73467ZM33.6471 5.73074C33.6479 5.73197 33.6487 5.73313 33.6497 5.73436C33.6488 5.73321 33.6479 5.73189 33.6471 5.73074ZM33.6445 5.72704C33.645 5.72781 33.6456 5.72858 33.6461 5.72935C33.6456 5.72858 33.645 5.72781 33.6445 5.72704ZM33.6422 5.72388C33.6424 5.72419 33.6426 5.72449 33.6429 5.7248C33.6426 5.72449 33.6424 5.72419 33.6422 5.72388Z" fill="#EEEEEE"/>
<path d="M32.254 4.9942H31.4021C31.4308 5.0494 31.459 5.10499 31.4866 5.16127C32.0422 6.29165 32.3062 7.5019 32.3074 8.69457H33.9998V6.8489C33.9998 6.43073 33.8695 6.04486 33.6498 5.73463C33.6498 5.73455 33.6497 5.73448 33.6496 5.7344C33.6488 5.73317 33.648 5.73201 33.647 5.73077C33.6467 5.73031 33.6464 5.72985 33.646 5.72939C33.6454 5.72862 33.6449 5.72785 33.6443 5.72707C33.6438 5.7263 33.6433 5.72561 33.6427 5.72484C33.6425 5.72453 33.6423 5.72422 33.6421 5.72391C33.4108 5.40235 33.0827 5.1635 32.7038 5.05673C32.5602 5.01579 32.4093 4.9942 32.254 4.9942Z" fill="#CBCBCB"/>
<path d="M32.1032 16.1138H28.1684L28.5549 16.9003C28.5172 16.9212 28.4794 16.9417 28.4416 16.9618H29.8659V18.2364H19.3619L19.7037 19.428H25.4392V20.7026H20.0694L20.4112 21.8943H20.7948V23.1689H20.7769L21.1188 24.3606H31.535V25.6351H21.4844L21.6664 26.2697H32.1032V16.1138" fill="white"/>
<path d="M31.535 24.3606H21.1187L21.4844 25.6351H31.535V24.3606Z" fill="#6EC6EB"/>
<path d="M20.7948 21.8943H20.4113L20.7769 23.1689H20.7948V21.8943Z" fill="#FDA589"/>
<path d="M25.4391 19.428H19.7037L20.0693 20.7026H25.4391V19.428Z" fill="#FBE98E"/>
<path d="M17.8712 8.69452H16.6246L18.753 16.1138H23.3182C23.2119 16.092 23.1058 16.0682 23 16.0421L22.9274 16.0243C21.1653 15.4364 19.6145 14.1346 18.6921 12.2577C18.1319 11.1177 17.868 9.89698 17.8712 8.69452Z" fill="#EEEEEE"/>
<path d="M18.7758 4.9942H15.5632L16.6247 8.69449H17.8713C17.8733 7.91737 17.987 7.1478 18.2042 6.41292C18.3492 5.92197 18.5406 5.44637 18.7758 4.9942Z" fill="#CBCBCB"/>
<path d="M23.3182 16.1138H18.753L19.2708 17.919V16.9618H23.1883L23.4323 16.1363C23.3943 16.129 23.3562 16.1216 23.3182 16.1138Z" fill="white"/>
<path d="M29.8659 16.9619H28.4416C27.4075 17.5115 26.3066 17.7724 25.2208 17.7724C24.4826 17.7724 23.7512 17.6517 23.0533 17.4189L23.1883 16.9619H19.2708V17.919L19.3619 18.2364H29.8659V16.9619" fill="#BABABA"/>
<path d="M27.9671 15.7042C27.5175 15.8815 27.0563 16.0182 26.5887 16.1138H28.1684L27.9671 15.7042Z" fill="#CECECE"/>
<path d="M28.1684 16.1138H26.5888C26.0498 16.2239 25.5023 16.2793 24.9534 16.2793C24.4455 16.2793 23.9364 16.2318 23.4325 16.1363L23.1885 16.9618H28.4418C28.4796 16.9417 28.5174 16.9212 28.5551 16.9003L28.1684 16.1138Z" fill="#DBDBDB"/>
<path d="M28.4417 16.9619H23.1883L23.0533 17.4189C23.7513 17.6517 24.4826 17.7724 25.2208 17.7724C26.3066 17.7724 27.4076 17.5115 28.4417 16.9619Z" fill="#A4A4A4"/>
<path d="M25.0827 1.04126C23.9574 1.04126 22.8157 1.32166 21.7492 1.91314C20.4462 2.63583 19.4375 3.72227 18.7758 4.99396H31.4019C30.471 3.20688 28.9606 1.96502 27.251 1.39498C26.5528 1.16215 25.8212 1.04126 25.0827 1.04126Z" fill="#DBDBDB"/>
<path d="M31.402 4.99402H18.7759L18.7758 4.99445H31.4021L31.402 4.99402Z" fill="#9F9F9F"/>
<path d="M32.3074 8.69452H17.8712C17.868 9.89698 18.1319 11.1176 18.6921 12.2577C19.6145 14.1346 21.1652 15.4364 22.9274 16.0243L23 16.0421C23.1058 16.0682 23.2118 16.092 23.3181 16.1138H26.5887C27.0563 16.0182 27.5174 15.8815 27.9671 15.7041C28.1226 15.6429 28.2765 15.5767 28.429 15.5057C30.8981 14.1363 32.3104 11.4623 32.3074 8.69452Z" fill="#CECECE"/>
<path d="M31.4021 4.9942H18.7757C18.5405 5.44637 18.3492 5.9219 18.204 6.41292C17.9868 7.1478 17.8732 7.91744 17.8712 8.69449H32.3074C32.3061 7.5019 32.0421 6.29157 31.4866 5.16119C31.459 5.10499 31.4308 5.0494 31.4021 4.9942Z" fill="#B2B2B2"/>
<path d="M26.5888 16.1138H23.3182C23.3562 16.1216 23.3943 16.129 23.4324 16.1363C23.9364 16.2318 24.4455 16.2793 24.9534 16.2793C25.5022 16.2793 26.0497 16.2239 26.5888 16.1138Z" fill="#DBDBDB"/>
<path d="M25.0893 7.66869L24.709 8.95542L22.9274 14.9828C21.1655 14.3953 19.6147 13.0932 18.6923 11.2166C17.77 9.33936 17.6509 7.2439 18.2039 5.37201L24.2605 7.39192L25.0893 7.66869Z" fill="#F9DE58"/>
<path d="M28.5552 15.8594C28.0123 16.1601 27.4499 16.3806 26.8803 16.5247C25.5958 16.8493 24.2743 16.7853 23.053 16.3775L24.9739 9.87907L25.2148 9.06262L28.5552 15.8594Z" fill="#29ABE2"/>
<path d="M28.4289 14.4647L25.0893 7.6687L24.2605 7.39192L18.2039 5.37201C18.7576 3.49935 19.9826 1.85182 21.7489 0.871928C21.934 0.769391 22.1205 0.676105 22.3099 0.592841C23.926 -0.126463 25.6734 -0.17272 27.2511 0.353844C29.0138 0.941314 30.5646 2.24269 31.4869 4.11998C33.3309 7.87377 31.9623 12.5049 28.4289 14.4647Z" fill="#FC7A51"/>
<path d="M16.4284 11.9506H2.95007V26.2697H16.4284V11.9506Z" fill="white"/>
<path d="M6.79245 18.5219H4.18011V25.4601H6.79245V18.5219Z" fill="#2BE0C6"/>
<path d="M10.9954 16.2092H8.383V25.4602H10.9954V16.2092Z" fill="#F9DE58"/>
<path d="M15.1983 13.6651H12.586V25.4601H15.1983V13.6651Z" fill="#FC7A51"/>
<path d="M17.6219 24.0546V34H0V24.0546H17.6219Z" fill="#29ABE2"/>
<path d="M1.0885 32.8435V25.2111H16.5331V32.8435H1.0885Z" fill="#F2F2F2"/>
<path d="M7.8421 32.1661L6.34311 30.4408L5.70857 31.3557L5.21771 30.9715L6.29028 29.4252L7.71764 31.0679L9.95929 26.7679L11.668 29.6853L13.6715 25.8885L14.2033 26.2052L11.6954 30.9579L9.98992 28.0461L7.8421 32.1661Z" fill="#FC7A51"/>
<path d="M3.84614 26.5217H1.88678V27.3698H3.84614V26.5217Z" fill="#999999"/>
<path d="M3.84614 28.6033H1.88678V29.4513H3.84614V28.6033Z" fill="#999999"/>
<path d="M3.84614 30.6849H1.88678V31.5329H3.84614V30.6849Z" fill="#999999"/>
<path d="M17.6219 24.0546H15.1982H12.586H10.9954H8.38299H6.79242H6.74017L7.07189 25.2111H16.5331V32.8436H9.26115L9.59286 34H17.6219V24.0546Z" fill="#6EC6EB"/>
<path d="M16.5331 25.2111H7.0719L8.38474 29.7882L9.95927 26.7679L11.668 29.6853L13.6715 25.8885L14.2033 26.2052L11.6953 30.9579L9.9899 28.0461L8.63213 30.6506L9.26116 32.8435H16.5331V25.2111Z" fill="#F6F6F6"/>
<path d="M13.6715 25.8885L11.668 29.6853L9.95929 26.7679L8.38477 29.7882L8.63215 30.6505L9.98992 28.0461L11.6954 30.9579L14.2033 26.2052L13.6715 25.8885Z" fill="#FDA589"/>
<path d="M28.5701 31.1586L29.1858 29.5656L31.0182 31.5124C31.1245 31.6252 31.264 31.6819 31.4031 31.6814C31.5426 31.6814 31.6817 31.6252 31.7879 31.5124C32.0008 31.2862 32.0003 30.9204 31.7879 30.6946L29.9555 28.7479L31.4554 28.0932L25.7545 25.1025L28.5701 31.1586Z" fill="#CCCCCC"/>
<path d="M28.57 31.1586L29.1858 29.5656L31.0182 31.5124C31.1244 31.6252 31.264 31.6819 31.403 31.6814C31.5426 31.6814 31.6817 31.6252 31.7879 31.5124L25.7543 25.1025L28.57 31.1586Z" fill="#808080"/>
</svg>
