<svg width="15" height="15" viewBox="0 0 15 15" fill="none" xmlns="http://www.w3.org/2000/svg">
<path d="M13.0109 6.37905V4.0036C13.0197 2.92877 12.4243 1.89527 11.3614 1.14162C10.3337 0.403858 8.98853 0 7.56395 0C7.5419 0 7.51544 0 7.49338 0C4.45457 0.00317999 1.98471 1.79669 1.98471 4.0036V6.37905C0.837989 6.47763 0 7.17087 0 8.01039V13.3464C0 14.2527 1.00559 15 2.26257 15H12.7374C13.9944 15 15 14.2527 15 13.3464V8.01039C14.9956 7.17405 14.1576 6.47763 13.0109 6.37905ZM2.86239 4.0036H2.8668C2.8668 2.14649 4.94413 0.626457 7.4978 0.626457H7.50221C8.71508 0.623278 9.87945 0.969896 10.7395 1.58681C11.6348 2.22599 12.1332 3.09731 12.1244 4.0036V6.38223H11.1541V4.0036C11.1629 3.28175 10.766 2.58851 10.0559 2.07971C9.38547 1.59635 8.47692 1.32287 7.52867 1.32287H7.50221C5.47339 1.32287 3.8327 2.52491 3.8327 4.00042V6.38223H2.86239V4.0036V4.0036ZM10.2764 4.0036V6.38223H4.7192V4.0036C4.7192 2.87789 5.96295 1.96205 7.50662 1.96205H7.53308C8.24757 1.96205 8.93561 2.16875 9.44281 2.53445C9.98089 2.92241 10.2852 3.45347 10.2764 4.0036ZM14.1576 13.3559C14.1576 13.9124 13.5313 14.364 12.7595 14.364H2.28021C1.50838 14.364 0.882094 13.9124 0.882094 13.3559V8.02629C0.882094 7.46979 1.50838 7.01823 2.28021 7.01823H12.7595C13.5313 7.01823 14.1576 7.46979 14.1576 8.02629V13.3559Z" fill="black"/>
<path d="M9.02381 10.4939C8.82975 10.001 8.20788 9.66394 7.49779 9.66394C6.62011 9.66394 5.90561 10.1759 5.90561 10.8119C5.90561 11.3239 6.37312 11.7723 7.05674 11.9122V12.8026C7.05674 12.9775 7.25521 13.1206 7.49779 13.1206C7.74037 13.1206 7.93884 12.9775 7.93884 12.8026V11.9122C8.78124 11.7373 9.2708 11.1013 9.02381 10.4939ZM7.49779 11.3207C7.10526 11.3207 6.7877 11.0918 6.7877 10.8087C6.7877 10.5257 7.10526 10.2968 7.49779 10.2968C7.89032 10.2968 8.20788 10.5257 8.20788 10.8087C8.20788 11.0918 7.89032 11.3207 7.49779 11.3207Z" fill="black"/>
</svg>
