<svg width="22" height="22" viewBox="0 0 22 22" fill="none" xmlns="http://www.w3.org/2000/svg">
<path d="M7.75 1V0.5H7.25H1H0.5V1V7.25V7.75H1H7.25H7.75V7.25V1ZM5.5 5.5H2.75V2.75H5.5V5.5Z" fill="black" stroke="#FFFED8"/>
<path d="M3.5 3H3V3.5V4.75V5.25H3.5H4.75H5.25V4.75V3.5V3H4.75H3.5Z" fill="black" stroke="#FFFED8"/>
<path d="M14.75 0.5H14.25V1V7.25V7.75H14.75H21H21.5V7.25V1V0.5H21H14.75ZM19.25 5.5H16.5V2.75H19.25V5.5Z" fill="black" stroke="#FFFED8"/>
<path d="M17.25 3H16.75V3.5V4.75V5.25H17.25H18.5H19V4.75V3.5V3H18.5H17.25Z" fill="black" stroke="#FFFED8"/>
<path d="M0.5 21V21.5H1H7.25H7.75V21V14.75V14.25H7.25H1H0.5V14.75V21ZM2.75 16.5H5.5V19.25H2.75V16.5Z" fill="black" stroke="#FFFED8"/>
<path d="M3.5 16.75H3V17.25V18.5V19H3.5H4.75H5.25V18.5V17.25V16.75H4.75H3.5Z" fill="black" stroke="#FFFED8"/>
<path d="M11 0.5H10.5V1V2.25V2.75H11H13.5H14V2.25V1V0.5H13.5H11Z" fill="black" stroke="#FFFED8"/>
<path d="M10.5 6V6.5H11H12.25H12.75V6V5.25H13.5H14V4.75V3.5V3H13.5H10.25V2.25V1.75H9.75H8.5H8V2.25V3.5V4.125V4.75V5.25H8.5H10.5V6Z" fill="black" stroke="#FFFED8"/>
<path d="M8.5 5.5H8V6V7.25V7.75H8.5H9.75H10.25V7.25V6V5.5H9.75H8.5Z" fill="black" stroke="#FFFED8"/>
<path d="M14 7.25V6.75H13.5H12.25H11.75V7.25V8H8.5H8V8.5V9.75V10.25H8.5H13.5H14V9.75V7.25Z" fill="black" stroke="#FFFED8"/>
<path d="M2.75 13.5V12.75H3.5H4V12.25V11V10.5H3.5H2.75V8.5V8H2.25H1H0.5V8.5V13.5V14H1H2.25H2.75V13.5Z" fill="black" stroke="#FFFED8"/>
<path d="M3.5 8H3V8.5V9.75V10.25H3.5H4.75H5.25V9.75V8.5V8H4.75H3.5Z" fill="black" stroke="#FFFED8"/>
<path d="M8 13.5V14H8.5H11H11.5V13.5V12.25V11.75H11H10.25V11V10.5H9.75H7.75V8.5V8H7.25H6H5.5V8.5V10.5H4.75H4.25V11V13.5V14H4.75H6H6.5V13.5V12.75H6.625H7.25H8V13.5Z" fill="black" stroke="#FFFED8"/>
<path d="M12.25 10.5H11.75V11V13.5V14H12.25H13.5H14V13.5V11V10.5H13.5H12.25Z" fill="black" stroke="#FFFED8"/>
<path d="M12.75 14.75V14.25H12.25H8.5H8V14.75V16V16.5H8.5H10.5V19.25H8.5H8V19.75V21V21.5H8.5H12.25H12.75V21V20.25H14.75H15.25V19.75V18.5V18H14.75H12.75V14.75Z" fill="black" stroke="#FFFED8"/>
<path d="M8.5 16.75H8V17.25V18.5V19H8.5H9.75H10.25V18.5V17.25V16.75H9.75H8.5Z" fill="black" stroke="#FFFED8"/>
<path d="M13.5 14.25H13V14.75V17.25V17.75H13.5H14.75H15.25V17.25V14.75V14.25H14.75H13.5Z" fill="black" stroke="#FFFED8"/>
<path d="M20.25 17.25V16.75H19.75H16H15.5V17.25V21V21.5H16H17.25H17.75V21V19H19.75H20.25V18.5V17.25Z" fill="black" stroke="#FFFED8"/>
<path d="M18.5 19.25H18V19.75V21V21.5H18.5H21H21.5V21V19.75V19.25H21H18.5Z" fill="black" stroke="#FFFED8"/>
<path d="M19.75 14.25H19.25V14.75V16V16.5H19.75H21H21.5V16V14.75V14.25H21H19.75Z" fill="black" stroke="#FFFED8"/>
<path d="M15.5 16V16.5H16H17.25H17.75V16V12.25V11.75H17.25H14.75H14.25V12.25V13.5V14H14.75H15.5V16Z" fill="black" stroke="#FFFED8"/>
<path d="M18 8.5V9.25H17.75V8.5V8H17.25H16H15.5V8.5V9.25H14.75H14.25V9.75V11V11.5H14.75H19.75H20.25V11V10.25H21H21.5V9.75V8.5V8H21H18.5H18V8.5Z" fill="black" stroke="#FFFED8"/>
<path d="M18.5 11.75H18V12.25V13.5V14H18.5H21H21.5V13.5V12.25V11.75H21H18.5Z" fill="black" stroke="#FFFED8"/>
</svg>
