<svg width="37" height="35" viewBox="0 0 37 35" fill="none" xmlns="http://www.w3.org/2000/svg">
<path d="M34.0756 28.6108L25.5567 22.9319V8.51889H8.51892V0H36.3473V23.4269H34.0756V28.6108Z" fill="#FFDF40"/>
<path d="M22.3621 8.51889H25.5567V22.9319L34.0756 28.6108V23.4269H36.3473V0H22.3621V8.51889Z" fill="#FFBE40"/>
<path d="M2.12972 35V29.8161H0V6.38916H27.6864V29.8161H9.90612L2.12972 35Z" fill="#66CCFF"/>
<path d="M13.8432 6.38916H27.6864V29.8161H13.8432V6.38916Z" fill="#59ABFF"/>
<path d="M14.9081 21.2972V17.0378H10.6486V19.1675H12.7783V21.2972H10.6486V23.4269H17.0378V21.2972H14.9081Z" fill="#F3F5F9"/>
<path d="M12.7783 12.7783H14.908V14.9081H12.7783V12.7783Z" fill="#F3F5F9"/>
<path d="M13.8432 12.7783H14.9081V14.9081H13.8432V12.7783Z" fill="#E1E6F0"/>
<path d="M14.9081 17.0378H13.8432V23.4269H17.0378V21.2972H14.9081V17.0378Z" fill="#E1E6F0"/>
</svg>
