<svg width="33" height="36" viewBox="0 0 33 36" fill="none" xmlns="http://www.w3.org/2000/svg">
<path d="M17.4444 12.7742C17.2971 12.7742 17.1558 12.7069 17.0516 12.5871C16.9474 12.4673 16.8889 12.3049 16.8889 12.1355V5.74839C16.8889 4.56261 16.4792 3.4254 15.7499 2.58694C15.0206 1.74847 14.0314 1.27742 13 1.27742C11.9686 1.27742 10.9794 1.74847 10.2501 2.58694C9.52083 3.4254 9.11111 4.56261 9.11111 5.74839V12.1355C9.11111 12.3049 9.05258 12.4673 8.94839 12.5871C8.84421 12.7069 8.7029 12.7742 8.55556 12.7742C8.40821 12.7742 8.2669 12.7069 8.16272 12.5871C8.05853 12.4673 8 12.3049 8 12.1355V5.74839C8 4.22382 8.52678 2.7617 9.46447 1.68366C10.4021 0.605632 11.6739 0 13 0C14.3261 0 15.5979 0.605632 16.5355 1.68366C17.4732 2.7617 18 4.22382 18 5.74839V12.1355C18 12.3049 17.9415 12.4673 17.8373 12.5871C17.7331 12.7069 17.5918 12.7742 17.4444 12.7742Z" fill="#DADCDE"/>
<path d="M19 36H0L1.11765 9.29032H17.8824L19 36Z" fill="#EB423F"/>
<path d="M23 36H19L18 9.29032H22L23 36Z" fill="#D13330"/>
<path d="M21.5292 32.5153C21.5192 32.5161 21.5092 32.5161 21.4992 32.5161C21.3718 32.516 21.2492 32.4513 21.1565 32.3352C21.0638 32.2191 21.008 32.0604 21.0005 31.8915L20.0006 9.32931C20 9.31604 20 9.30359 20 9.29032H21.0011L21.9991 31.8135C22.0069 31.9893 21.9617 32.162 21.8736 32.2935C21.7855 32.4251 21.6616 32.5049 21.5292 32.5153V32.5153Z" fill="#A82A27"/>
<path d="M33 36H28.2L28.125 34.9893V34.9886L27 19.7419H31.8L32.9063 34.7251V34.7259L33 36Z" fill="#EBA72E"/>
<path d="M30.55 32.5131C30.5332 32.5152 30.5163 32.5162 30.4994 32.5161C30.3755 32.5159 30.2561 32.4598 30.1644 32.3587C30.0726 32.2576 30.0149 32.1186 30.0025 31.9687L29.9844 31.7512L29.0025 19.8028C29.0007 19.7826 28.9999 19.7623 29 19.7419H30.0025L30.985 31.6957L30.9975 31.847C31.0041 31.9265 30.9977 32.0068 30.9788 32.0832C30.9598 32.1597 30.9287 32.2309 30.8871 32.2928C30.8456 32.3546 30.7944 32.4059 30.7366 32.4437C30.6787 32.4815 30.6153 32.5051 30.55 32.5131V32.5131Z" fill="#E09F2C"/>
<path d="M33 36H32.26L30.5385 33.2146L28.8169 36H28.0769L28 34.9275V34.9266L29.9038 31.8475L30.0262 31.6501C30.0824 31.5593 30.1587 31.4848 30.248 31.4333C30.3374 31.3818 30.4371 31.3548 30.5385 31.3548C30.6398 31.3548 30.7395 31.3818 30.8289 31.4333C30.9183 31.4848 30.9945 31.5593 31.0508 31.6501L31.1354 31.787L32.9038 34.6471V34.6479L33 36Z" fill="#E09F2C"/>
<path d="M28 36H14L15.0769 19.7419H26.9231L28 36Z" fill="#F7B030"/>
<path d="M21.0833 31.3548H19.9167C19.1434 31.3538 18.402 31.004 17.8552 30.3819C17.3084 29.7599 17.0009 28.9165 17 28.0369V22.7281C17 22.5521 17.0615 22.3833 17.1709 22.2589C17.2803 22.1344 17.4286 22.0645 17.5833 22.0645C17.738 22.0645 17.8864 22.1344 17.9958 22.2589C18.1052 22.3833 18.1667 22.5521 18.1667 22.7281V28.0369C18.1672 28.5647 18.3517 29.0707 18.6798 29.4439C19.0079 29.8171 19.4527 30.0271 19.9167 30.0276H21.0833C21.5473 30.0271 21.9921 29.8171 22.3202 29.4439C22.6483 29.0707 22.8328 28.5647 22.8333 28.0369V22.7281C22.8333 22.5521 22.8948 22.3833 23.0042 22.2589C23.1136 22.1344 23.262 22.0645 23.4167 22.0645C23.5714 22.0645 23.7197 22.1344 23.8291 22.2589C23.9385 22.3833 24 22.5521 24 22.7281V28.0369C23.9991 28.9165 23.6916 29.7599 23.1448 30.3819C22.598 31.004 21.8566 31.3538 21.0833 31.3548V31.3548Z" fill="#E9EEF2"/>
<path d="M5 12.7742H6V16.2581H5V12.7742Z" fill="#DADCDE"/>
<path d="M5.55556 12.7742C5.40821 12.7742 5.26691 12.7069 5.16272 12.5871C5.05853 12.4673 5 12.3049 5 12.1355V5.74839C5 4.22382 5.52678 2.7617 6.46447 1.68366C7.40215 0.605632 8.67392 0 10 0C11.3261 0 12.5979 0.605632 13.5355 1.68366C14.4732 2.7617 15 4.22382 15 5.74839V12.1355C15 12.3049 14.9415 12.4673 14.8373 12.5871C14.7331 12.7069 14.5918 12.7742 14.4444 12.7742C14.2971 12.7742 14.1558 12.7069 14.0516 12.5871C13.9474 12.4673 13.8889 12.3049 13.8889 12.1355V5.74839C13.8889 4.56261 13.4792 3.4254 12.7499 2.58694C12.0206 1.74847 11.0314 1.27742 10 1.27742C8.9686 1.27742 7.97945 1.74847 7.25014 2.58694C6.52083 3.4254 6.11111 4.56261 6.11111 5.74839V12.1355C6.11111 12.3049 6.05258 12.4673 5.94839 12.5871C5.84421 12.7069 5.7029 12.7742 5.55556 12.7742Z" fill="#E9EEF2"/>
<path d="M8 20.9032H4V16.2581L6 15.0968L8 16.2581V20.9032Z" fill="#F7B030"/>
</svg>
