<svg width="15" height="15" viewBox="0 0 15 15" fill="none" xmlns="http://www.w3.org/2000/svg">
<path d="M13.25 2C13.3163 2 13.3799 1.97366 13.4268 1.92678C13.4737 1.87989 13.5 1.8163 13.5 1.75V1.25C13.4996 0.918594 13.3678 0.600867 13.1335 0.366528C12.8991 0.132188 12.5814 0.000372204 12.25 0H3.25C2.91859 0.000372204 2.60087 0.132188 2.36653 0.366528C2.13219 0.600867 2.00037 0.918594 2 1.25V12.5H2.5V1.25C2.50023 1.05116 2.57932 0.860528 2.71993 0.719926C2.86053 0.579324 3.05116 0.500232 3.25 0.5H11.2506C11.0877 0.716074 10.9997 0.979393 11 1.25V13.75C11 13.9489 10.921 14.1397 10.7803 14.2803C10.6397 14.421 10.4489 14.5 10.25 14.5C10.0511 14.5 9.86032 14.421 9.71967 14.2803C9.57902 14.1397 9.5 13.9489 9.5 13.75V13.25C9.5 13.1837 9.47366 13.1201 9.42678 13.0732C9.37989 13.0263 9.3163 13 9.25 13H0.25C0.183696 13 0.120107 13.0263 0.0732233 13.0732C0.0263392 13.1201 0 13.1837 0 13.25V13.75C0.000372204 14.0814 0.132188 14.3991 0.366528 14.6335C0.600867 14.8678 0.918594 14.9996 1.25 15H10.25C10.5814 14.9996 10.8991 14.8678 11.1335 14.6335C11.3678 14.3991 11.4996 14.0814 11.5 13.75V2H13.25ZM1.25 14.5C1.05116 14.4998 0.86052 14.4207 0.719917 14.2801C0.579313 14.1395 0.500223 13.9488 0.5 13.75V13.5H9V13.75C8.9997 14.0206 9.08768 14.2839 9.25059 14.5H1.25ZM12.25 0.5C12.4488 0.500232 12.6395 0.579324 12.7801 0.719926C12.9207 0.860528 12.9998 1.05116 13 1.25V1.5H11.5V1.25C11.5002 1.05116 11.5793 0.860528 11.7199 0.719926C11.8605 0.579324 12.0512 0.500232 12.25 0.5V0.5Z" fill="black"/>
<path d="M5.24999 2.75C5.24868 2.84988 5.27084 2.94868 5.31469 3.03843C5.35853 3.12818 5.42284 3.20639 5.50243 3.26675C5.49017 3.36565 5.50063 3.46605 5.53303 3.5603C5.56542 3.65455 5.61888 3.74017 5.68935 3.81064C5.75983 3.88111 5.84544 3.93458 5.93969 3.96697C6.03394 3.99936 6.13434 4.00982 6.23324 3.99756C6.2945 4.07617 6.37289 4.13977 6.46244 4.18352C6.55198 4.22726 6.65033 4.25 6.74999 4.25C6.84965 4.25 6.948 4.22726 7.03755 4.18352C7.1271 4.13977 7.20548 4.07617 7.26674 3.99756C7.36565 4.00983 7.46605 3.99937 7.5603 3.96698C7.65455 3.93459 7.74017 3.88112 7.81065 3.81065C7.88112 3.74018 7.93458 3.65456 7.96697 3.56031C7.99936 3.46605 8.00982 3.36565 7.99756 3.26675C8.07617 3.20549 8.13977 3.1271 8.18351 3.03756C8.22725 2.94801 8.24999 2.84966 8.24999 2.75C8.24999 2.65034 8.22725 2.55199 8.18351 2.46244C8.13977 2.3729 8.07617 2.29451 7.99756 2.23325C8.00982 2.13434 7.99936 2.03394 7.96697 1.93969C7.93458 1.84544 7.88112 1.75982 7.81065 1.68935C7.74017 1.61887 7.65455 1.56541 7.5603 1.53302C7.46605 1.50063 7.36565 1.49017 7.26674 1.50244C7.20548 1.42383 7.1271 1.36023 7.03755 1.31648C6.948 1.27274 6.84965 1.25 6.74999 1.25C6.65033 1.25 6.55198 1.27274 6.46244 1.31648C6.37289 1.36023 6.2945 1.42383 6.23324 1.50244C6.13434 1.49017 6.03394 1.50063 5.93969 1.53302C5.84543 1.56541 5.75981 1.61887 5.68934 1.68935C5.61887 1.75982 5.5654 1.84544 5.53301 1.93969C5.50062 2.03394 5.49016 2.13434 5.50243 2.23325C5.42284 2.29361 5.35853 2.37181 5.31469 2.46157C5.27084 2.55132 5.24868 2.65012 5.24999 2.75V2.75ZM5.86596 2.60487C5.905 2.59605 5.94134 2.57798 5.97194 2.55219C6.00255 2.52641 6.02651 2.49365 6.04182 2.45667C6.05713 2.4197 6.06334 2.37959 6.05993 2.33971C6.05652 2.29984 6.04358 2.26137 6.02221 2.22753C6.00419 2.19898 5.99641 2.16515 6.00016 2.1316C6.00391 2.09805 6.01895 2.06677 6.04283 2.0429C6.0667 2.01903 6.09798 2.00399 6.13154 2.00024C6.16509 1.9965 6.19892 2.00429 6.22746 2.02231C6.2613 2.04368 6.29977 2.05662 6.33964 2.06003C6.37952 2.06344 6.41963 2.05723 6.4566 2.04192C6.49358 2.02661 6.52634 2.00265 6.55213 1.97204C6.57792 1.94144 6.59598 1.9051 6.60481 1.86606C6.61225 1.83313 6.63066 1.80371 6.65704 1.78262C6.68341 1.76154 6.71617 1.75006 6.74993 1.75006C6.78369 1.75006 6.81645 1.76154 6.84283 1.78262C6.8692 1.80371 6.88762 1.83313 6.89506 1.86606C6.90388 1.9051 6.92195 1.94144 6.94774 1.97204C6.97352 2.00265 7.00628 2.02661 7.04326 2.04192C7.08023 2.05723 7.12034 2.06344 7.16022 2.06003C7.20009 2.05662 7.23856 2.04368 7.2724 2.02231C7.30095 2.00429 7.33477 1.9965 7.36833 2.00024C7.40188 2.00399 7.43316 2.01903 7.45704 2.0429C7.48091 2.06677 7.49596 2.09805 7.4997 2.1316C7.50345 2.16515 7.49567 2.19898 7.47765 2.22753C7.45628 2.26137 7.44335 2.29984 7.43993 2.33971C7.43652 2.37959 7.44273 2.4197 7.45804 2.45667C7.47335 2.49365 7.49732 2.52641 7.52792 2.55219C7.55852 2.57798 7.59487 2.59605 7.6339 2.60487C7.66683 2.61231 7.69626 2.63073 7.71734 2.65711C7.73842 2.68348 7.7499 2.71624 7.7499 2.75C7.7499 2.78376 7.73842 2.81652 7.71734 2.84289C7.69626 2.86927 7.66683 2.88769 7.6339 2.89512C7.59487 2.90395 7.55852 2.92201 7.52792 2.9478C7.49732 2.97359 7.47335 3.00635 7.45804 3.04333C7.44273 3.0803 7.43652 3.12041 7.43993 3.16029C7.44335 3.20016 7.45628 3.23863 7.47765 3.27247C7.49568 3.30102 7.50347 3.33486 7.49972 3.36842C7.49598 3.40198 7.48093 3.43327 7.45705 3.45714C7.43317 3.48102 7.40187 3.49606 7.36831 3.49979C7.33475 3.50352 7.30091 3.49573 7.27237 3.47769C7.23853 3.45632 7.20006 3.44339 7.16019 3.43999C7.12032 3.43658 7.08022 3.44279 7.04325 3.4581C7.00628 3.47341 6.97352 3.49737 6.94773 3.52797C6.92195 3.55857 6.90388 3.59491 6.89506 3.63394C6.88762 3.66687 6.8692 3.69629 6.84283 3.71737C6.81645 3.73845 6.78369 3.74994 6.74993 3.74994C6.71617 3.74994 6.68341 3.73845 6.65704 3.71737C6.63066 3.69629 6.61225 3.66687 6.60481 3.63394C6.59598 3.59491 6.57791 3.55857 6.55213 3.52797C6.52634 3.49737 6.49358 3.47341 6.45661 3.4581C6.41964 3.44279 6.37954 3.43658 6.33967 3.43999C6.2998 3.44339 6.26133 3.45632 6.22749 3.47769C6.19895 3.49573 6.16511 3.50352 6.13155 3.49979C6.09799 3.49606 6.0667 3.48102 6.04281 3.45714C6.01893 3.43327 6.00388 3.40198 6.00014 3.36842C5.99639 3.33486 6.00418 3.30102 6.02221 3.27247C6.04358 3.23863 6.05652 3.20016 6.05993 3.16029C6.06334 3.12041 6.05713 3.0803 6.04182 3.04333C6.02651 3.00635 6.00255 2.97359 5.97194 2.9478C5.94134 2.92201 5.905 2.90395 5.86596 2.89512C5.83303 2.88769 5.80361 2.86927 5.78253 2.84289C5.76145 2.81652 5.74996 2.78376 5.74996 2.75C5.74996 2.71624 5.76145 2.68348 5.78253 2.65711C5.80361 2.63073 5.83303 2.61231 5.86596 2.60487V2.60487Z" fill="black"/>
<path d="M5.5 5.75H8V6.25H5.5V5.75Z" fill="black"/>
<path d="M6.25 4.75H8.75V5.25H6.25V4.75Z" fill="black"/>
<path d="M4.75 4.75H5.75V5.25H4.75V4.75Z" fill="black"/>
<path d="M4.25 7H10.25V7.5H4.25V7Z" fill="black"/>
<path d="M3.25 7H3.75V7.5H3.25V7Z" fill="black"/>
<path d="M4.25 8H8.25V8.5H4.25V8Z" fill="black"/>
<path d="M8.75 8H10.25V8.5H8.75V8Z" fill="black"/>
<path d="M4.25 9H10.25V9.5H4.25V9Z" fill="black"/>
<path d="M3.25 9H3.75V9.5H3.25V9Z" fill="black"/>
<path d="M4.25 10H5.75V10.5H4.25V10Z" fill="black"/>
<path d="M6.25 10H10.25V10.5H6.25V10Z" fill="black"/>
<path d="M4.25 11H8.25V11.5H4.25V11Z" fill="black"/>
<path d="M3.25 11H3.75V11.5H3.25V11Z" fill="black"/>
<path d="M4.25 12H10.25V12.5H4.25V12Z" fill="black"/>
<path d="M8.75 11H10.25V11.5H8.75V11Z" fill="black"/>
<path d="M14.25 4H14C14 3.73478 13.8946 3.48043 13.7071 3.29289C13.5196 3.10536 13.2652 3 13 3C12.7348 3 12.4804 3.10536 12.2929 3.29289C12.1054 3.48043 12 3.73478 12 4V12C12 12.0388 12.0091 12.0771 12.0266 12.1117H12.0264L12.7764 13.6117C12.7972 13.6532 12.8291 13.6882 12.8686 13.7126C12.9081 13.737 12.9536 13.7499 13 13.7499C13.0464 13.7499 13.0919 13.737 13.1314 13.7126C13.1709 13.6882 13.2028 13.6532 13.2236 13.6117L13.9736 12.1117H13.9734C13.9909 12.0771 14 12.0388 14 12V4.5H14.25C14.3163 4.50007 14.3798 4.52644 14.4267 4.57331C14.4736 4.62017 14.4999 4.68372 14.5 4.75V7.5H15V4.75C14.9998 4.55116 14.9207 4.36053 14.7801 4.21993C14.6395 4.07932 14.4488 4.00023 14.25 4V4ZM13 3.5C13.1326 3.50016 13.2596 3.55289 13.3534 3.64662C13.4471 3.74035 13.4998 3.86744 13.5 4H12.5C12.5002 3.86744 12.5529 3.74035 12.6466 3.64662C12.7404 3.55289 12.8674 3.50016 13 3.5V3.5ZM13.5 11.75H12.5V8H13.5V11.75ZM13.5 7.5H12.5V7H13.5V7.5ZM13 12.941L12.6545 12.25H13.3455L13 12.941ZM13.5 6.5H12.5V4.5H13.5V6.5Z" fill="black"/>
</svg>
