<svg width="33" height="32" viewBox="0 0 33 32" fill="none" xmlns="http://www.w3.org/2000/svg">
<path d="M31.5039 19.9605C31.5187 19.9034 31.5329 19.846 31.547 19.7884C31.5331 19.8459 31.5185 19.9032 31.5039 19.9605Z" fill="#BFE5FE"/>
<path d="M16 0C9.84275 0 6.05025 3.47275 6.03977 3.47865C5.80216 4.5755 5.38885 6.16728 5.38885 7.33528C5.38885 16.1719 12.8407 23.3335 21.6772 23.3335C25.443 23.3335 28.9029 21.5802 31.6361 19.4032C31.6472 19.335 32 17.9302 32 16C32 7.16342 24.8366 0 16 0Z" fill="#B4E7FD"/>
<path d="M21.6759 22.8818C12.8393 22.8818 5.67586 15.7184 5.67586 6.8818C5.67586 5.7138 5.80216 4.57548 6.03984 3.47857C6.03947 3.47888 6.03915 3.4792 6.03878 3.47945C4.50453 4.70172 3.19994 6.19989 2.20016 7.89896L0.296471 12.919C0.101961 13.916 0 14.9461 0 16C0 17.1154 0.114133 18.2041 0.331357 19.2551L2.30318 24.2748C5.10664 28.9053 10.1919 32 16 32C23.6028 32 30.0622 26.6679 31.636 19.4032C28.9029 21.5802 25.4416 22.8818 21.6759 22.8818Z" fill="#A0CAFE"/>
<path d="M21.3116 24.5861V19.5665H16.3455C16.2615 19.5665 16.1821 19.5299 16.1274 19.4661L7.8122 9.75497C6.80263 8.57593 5.33339 7.89973 3.78121 7.89973H2.20128C1.30164 9.42857 0.649095 11.1199 0.297974 12.9193H3.78127C3.86528 12.9193 3.94478 12.9559 3.99943 13.0197L12.3146 22.7308C13.3242 23.9099 14.7934 24.5861 16.3456 24.5861H21.3116Z" fill="#5C83EF"/>
<path d="M3.99932 13.0197L9.20679 19.1014H12.4386V15.1581L7.81215 9.75497C6.80259 8.57593 5.33335 7.89973 3.78116 7.89973H2.20124C1.3016 9.42857 0.649049 11.1199 0.297928 12.9193H3.78122C3.86524 12.9193 3.94474 12.9559 3.99932 13.0197Z" fill="#5C83EF"/>
<path d="M16.9253 19.5665H21.3116V24.5861H16.9253V19.5665Z" fill="#3F67CD"/>
<path d="M18.5719 17.9726V26.18C18.5719 27.1623 19.6667 27.7482 20.4841 27.2033L26.639 23.0996C27.3691 22.6127 27.3691 21.5398 26.639 21.0529L20.4841 16.9492C19.6667 16.4043 18.5719 16.9903 18.5719 17.9726Z" fill="#4572E3"/>
<path d="M21.1769 12.6079H26.1429V7.58833H21.1769C19.6247 7.58833 18.1555 8.26453 17.1459 9.44357L8.83068 19.1547C8.77609 19.2185 8.69653 19.2551 8.61251 19.2551H0.331726C0.704307 21.0578 1.38007 22.7495 2.30343 24.2747H8.61257C10.1648 24.2747 11.634 23.5985 12.6436 22.4194L20.9587 12.7083C21.0134 12.6445 21.0929 12.6079 21.1769 12.6079Z" fill="#FBA72D"/>
<path d="M21.7567 7.58833H26.143V12.6079H21.7567V7.58833Z" fill="#FBA72D"/>
<path d="M23.4033 14.2018V5.99441C23.4033 5.01207 24.4981 4.42616 25.3154 4.9711L31.4703 9.07482C32.2005 9.56166 32.2005 10.6346 31.4703 11.1214L25.3154 15.2252C24.4981 15.77 23.4033 15.1841 23.4033 14.2018Z" fill="#FFE565"/>
</svg>
