<svg width="220" height="235" viewBox="0 0 281 235" fill="none" xmlns="http://www.w3.org/2000/svg">
<path d="M117 55.3695H115.711V20.2983C115.711 17.6327 115.182 14.9932 114.155 12.5305C113.127 10.0678 111.622 7.83008 109.724 5.94521C107.825 4.06034 105.572 2.56518 103.092 1.5451C100.612 0.525017 97.9536 -8.33943e-06 95.2691 0H20.4416C17.7572 -8.33944e-06 15.099 0.525017 12.6189 1.5451C10.1388 2.56518 7.88538 4.06034 5.9872 5.94522C4.08902 7.83009 2.5833 10.0678 1.55601 12.5305C0.528728 14.9932 -4.19919e-06 17.6327 0 20.2983V212.702C-2.5195e-06 215.367 0.528733 218.007 1.55602 220.47C2.58331 222.932 4.08903 225.17 5.98721 227.055C7.88539 228.94 10.1388 230.435 12.6189 231.455C15.099 232.475 17.7572 233 20.4416 233H95.2691C97.9536 233 100.612 232.475 103.092 231.455C105.572 230.435 107.825 228.94 109.724 227.055C111.622 225.17 113.127 222.932 114.155 220.47C115.182 218.007 115.711 215.367 115.711 212.702V80.3338H117V55.3695Z" fill="#E6E6E6"/>
<path d="M94.9827 6H85.374C85.8159 7.08646 85.9846 8.26522 85.8652 9.43246C85.7458 10.5997 85.342 11.7196 84.6894 12.6934C84.0368 13.6673 83.1554 14.4653 82.1229 15.017C81.0903 15.5688 79.9383 15.8575 78.7683 15.8576H36.5976C35.4276 15.8575 34.2756 15.5688 33.243 15.017C32.2104 14.4653 31.329 13.6673 30.6764 12.6934C30.0238 11.7196 29.62 10.5997 29.5007 9.43246C29.3813 8.26522 29.5499 7.08646 29.9918 6H21.0173C19.0452 6 17.0924 6.38955 15.2704 7.1464C13.4485 7.90326 11.793 9.01261 10.3985 10.4111C9.00399 11.8096 7.89783 13.4699 7.14313 15.2971C6.38844 17.1243 6 19.0827 6 21.0605V211.939C6 213.917 6.38844 215.876 7.14313 217.703C7.89782 219.53 9.00399 221.19 10.3985 222.589C11.793 223.987 13.4485 225.097 15.2704 225.854C17.0924 226.61 19.0452 227 21.0173 227H94.9827C96.9548 227 98.9076 226.61 100.73 225.854C102.552 225.097 104.207 223.987 105.602 222.589C106.996 221.19 108.102 219.53 108.857 217.703C109.612 215.876 110 213.917 110 211.939V21.0605C110 19.0827 109.612 17.1243 108.857 15.2971C108.102 13.4699 106.996 11.8096 105.602 10.4111C104.207 9.01261 102.552 7.90326 100.73 7.1464C98.9076 6.38955 96.9548 6 94.9827 6V6Z" fill="white"/>
<path d="M36.3713 45H31.6288C31.462 45 31.3021 45.0513 31.1842 45.1426C31.0662 45.2339 31 45.3577 31 45.4868V47.0984C31 47.2275 31.0662 47.3514 31.1842 47.4426C31.3021 47.5339 31.462 47.5852 31.6288 47.5852H32.4147V50H35.5853V47.5852H36.3713C36.538 47.5852 36.6979 47.5339 36.8158 47.4426C36.9338 47.3514 37 47.2275 37 47.0984V45.4868C37 45.3577 36.9338 45.2339 36.8158 45.1426C36.6979 45.0513 36.538 45 36.3713 45V45Z" fill="#E6E6E6"/>
<path d="M40.5236 61.2183C37.8123 57.1424 36.4262 52.2895 36.564 47.3547C36.5664 47.2409 36.5305 47.1297 36.4622 47.0399C36.3939 46.9502 36.2974 46.8876 36.1893 46.8626V46H31.5137V46.8506H31.4493C31.322 46.8508 31.2001 46.9029 31.1102 46.9954C31.0203 47.088 30.97 47.2134 30.9701 47.3441C30.9701 47.3561 30.9706 47.3681 30.9714 47.38C31.3398 52.6552 30.096 57.3859 27.2399 61.5721C27.0756 61.8127 26.9916 62.1015 27.0007 62.3953L27.5119 78.6425C27.5242 79.0049 27.6722 79.3484 27.9252 79.6014C28.1781 79.8543 28.5163 79.9971 28.8692 80H39.4447C39.8017 79.997 40.1434 79.8509 40.3971 79.5929C40.6508 79.3349 40.7964 78.9853 40.8028 78.6186L40.9999 62.8439C41.0057 62.2649 40.8395 61.6978 40.5236 61.2183Z" fill="#E6E6E6"/>
<path d="M38.8927 67H28.1073C27.9477 67 27.7899 67.032 27.6448 67.0938C27.4998 67.1556 27.3708 67.2457 27.2669 67.358C27.1629 67.4703 27.0864 67.6021 27.0426 67.7444C26.9987 67.8866 26.9886 68.036 27.0129 68.1822L28.6427 78H38.0014L39.981 68.2153C40.011 68.0671 40.0054 67.9146 39.9646 67.7686C39.9237 67.6227 39.8487 67.4869 39.7448 67.3708C39.6409 67.2548 39.5106 67.1614 39.3634 67.0973C39.2161 67.0332 39.0554 67 38.8927 67V67Z" fill="white"/>
<path d="M85.3712 92H80.6288C80.462 92 80.3021 92.0718 80.1842 92.1996C80.0662 92.3274 80 92.5008 80 92.6815V94.9378C80 95.1185 80.0662 95.2919 80.1842 95.4197C80.3021 95.5475 80.462 95.6193 80.6288 95.6193H81.4147V99H84.5853V95.6193H85.3712C85.538 95.6193 85.6979 95.5475 85.8158 95.4197C85.9338 95.2919 86 95.1185 86 94.9378V92.6815C86 92.5008 85.9337 92.3274 85.8158 92.1996C85.6979 92.0718 85.538 92 85.3712 92Z" fill="#E6E6E6"/>
<path d="M90.5236 110.771C87.8123 106.815 86.4262 102.105 86.564 97.3149C86.5664 97.2044 86.5304 97.0964 86.4621 97.0094C86.3938 96.9223 86.2974 96.8615 86.1893 96.8372V96H81.5137V96.8256H81.4493C81.3862 96.8257 81.3239 96.8381 81.2657 96.8623C81.2075 96.8864 81.1547 96.9217 81.1102 96.9662C81.0657 97.0106 81.0304 97.0634 81.0064 97.1215C80.9824 97.1796 80.97 97.2418 80.9701 97.3046C80.9701 97.3162 80.9706 97.3278 80.9714 97.3394C81.3398 102.459 80.096 107.051 77.2399 111.114C77.0756 111.348 76.9916 111.628 77.0007 111.913L77.5119 127.682C77.5242 128.034 77.6722 128.368 77.9251 128.613C78.1781 128.859 78.5163 128.997 78.8692 129H89.4447C89.8017 128.997 90.1434 128.855 90.3971 128.605C90.6508 128.354 90.7964 128.015 90.8028 127.659L90.9999 112.348C91.0057 111.786 90.8395 111.236 90.5236 110.771V110.771Z" fill="#E6E6E6"/>
<path d="M88.9779 116H79.0221C78.8748 116 78.7291 116.026 78.5952 116.077C78.4613 116.127 78.3423 116.201 78.2464 116.293C78.1504 116.385 78.0798 116.493 78.0393 116.609C77.9988 116.725 77.9895 116.848 78.0119 116.967L79.5163 125H88.1551L89.9825 116.994C90.0102 116.873 90.005 116.748 89.9673 116.629C89.9296 116.509 89.8603 116.398 89.7644 116.303C89.6685 116.208 89.5483 116.132 89.4123 116.08C89.2764 116.027 89.1281 116 88.9779 116H88.9779Z" fill="white"/>
<path d="M29.6856 158H27.3144C27.231 158 27.151 158.041 27.0921 158.114C27.0331 158.187 27 158.286 27 158.389V159.679C27 159.782 27.0331 159.881 27.0921 159.954C27.151 160.027 27.231 160.068 27.3144 160.068H27.7073V162H29.2927V160.068H29.6856C29.769 160.068 29.849 160.027 29.9079 159.954C29.9669 159.881 30 159.782 30 159.679V158.389C30 158.286 29.9669 158.187 29.9079 158.114C29.849 158.041 29.769 158 29.6856 158Z" fill="#E6E6E6"/>
<path d="M31.7958 168.162C30.6338 166.243 30.0398 163.96 30.0988 161.638C30.0999 161.584 30.0845 161.532 30.0552 161.489C30.0259 161.447 29.9846 161.418 29.9383 161.406V161H27.9344V161.4H27.9068C27.8798 161.4 27.8531 161.406 27.8282 161.418C27.8032 161.43 27.7806 161.447 27.7615 161.468C27.7424 161.49 27.7273 161.516 27.717 161.544C27.7067 161.572 27.7014 161.602 27.7015 161.633C27.7015 161.638 27.7017 161.644 27.702 161.649C27.887 164.019 27.3203 166.386 26.1028 168.328C26.0324 168.441 25.9964 168.577 26.0003 168.715L26.2194 176.361C26.2246 176.532 26.2881 176.693 26.3965 176.812C26.5049 176.931 26.6498 176.999 26.8011 177H31.3334C31.4864 176.999 31.6329 176.93 31.7416 176.808C31.8503 176.687 31.9127 176.522 31.9155 176.35L31.9999 168.927C32.0024 168.654 31.9312 168.387 31.7958 168.162V168.162Z" fill="#E6E6E6"/>
<path d="M31 171H27V172H31V171Z" fill="white"/>
<path d="M39.7904 158H38.2096C38.154 158 38.1007 158.041 38.0614 158.114C38.0221 158.187 38 158.286 38 158.389V159.679C38 159.782 38.0221 159.881 38.0614 159.954C38.1007 160.027 38.154 160.068 38.2096 160.068H38.4716V162H39.5284V160.068H39.7904C39.846 160.068 39.8993 160.027 39.9386 159.954C39.9779 159.881 40 159.782 40 159.679V158.389C40 158.286 39.9779 158.187 39.9386 158.114C39.8993 158.041 39.846 158 39.7904 158Z" fill="#E6E6E6"/>
<path d="M41.7618 168.162C40.4061 166.243 39.7131 163.96 39.782 161.638C39.7832 161.584 39.7652 161.532 39.7311 161.489C39.6969 161.447 39.6487 161.418 39.5946 161.406V161H37.2568V161.4H37.2246C37.1931 161.4 37.1619 161.406 37.1329 161.418C37.1038 161.43 37.0773 161.447 37.0551 161.468C37.0329 161.49 37.0152 161.516 37.0032 161.544C36.9912 161.572 36.985 161.602 36.9851 161.633C36.9851 161.638 36.9853 161.644 36.9857 161.649C37.2015 164.019 36.5403 166.386 35.12 168.328C35.0378 168.441 34.9958 168.577 35.0003 168.715L35.2559 176.361C35.2621 176.532 35.3361 176.693 35.4626 176.812C35.589 176.931 35.7581 176.999 35.9346 177H41.2223C41.4008 176.999 41.5717 176.93 41.6985 176.808C41.8254 176.687 41.8982 176.522 41.9014 176.35L41.9999 168.927C42.0028 168.654 41.9198 168.387 41.7618 168.162Z" fill="#E6E6E6"/>
<path d="M41 171H35V172H41V171Z" fill="white"/>
<path d="M49.5808 158H46.4192C46.308 158 46.2014 158.041 46.1228 158.114C46.0442 158.187 46 158.286 46 158.389V159.679C46 159.782 46.0442 159.881 46.1228 159.954C46.2014 160.027 46.308 160.068 46.4192 160.068H46.9431V162H49.0569V160.068H49.5808C49.692 160.068 49.7986 160.027 49.8772 159.954C49.9558 159.881 50 159.782 50 159.679V158.389C50 158.286 49.9558 158.187 49.8772 158.114C49.7986 158.041 49.692 158 49.5808 158Z" fill="#E6E6E6"/>
<path d="M51.7618 168.162C50.4061 166.243 49.7131 163.96 49.782 161.638C49.7832 161.584 49.7652 161.532 49.7311 161.489C49.6969 161.447 49.6487 161.418 49.5946 161.406V161H47.2568V161.4H47.2246C47.1931 161.4 47.1619 161.406 47.1329 161.418C47.1038 161.43 47.0773 161.447 47.0551 161.468C47.0329 161.49 47.0152 161.516 47.0032 161.544C46.9912 161.572 46.985 161.602 46.9851 161.633C46.9851 161.638 46.9853 161.644 46.9857 161.649C47.2015 164.019 46.5403 166.386 45.12 168.328C45.0378 168.441 44.9958 168.577 45.0003 168.715L45.2559 176.361C45.2621 176.532 45.3361 176.693 45.4626 176.812C45.589 176.931 45.7581 176.999 45.9346 177H51.2223C51.4008 176.999 51.5717 176.93 51.6985 176.808C51.8254 176.687 51.8982 176.522 51.9014 176.35L51.9999 168.927C52.0028 168.654 51.9198 168.387 51.7618 168.162Z" fill="#E6E6E6"/>
<path d="M50 171H46V172H50V171Z" fill="white"/>
<path d="M78.3712 141H73.6288C73.5462 141 73.4644 141.018 73.3881 141.052C73.3119 141.086 73.2426 141.136 73.1842 141.2C73.1258 141.263 73.0795 141.338 73.0479 141.421C73.0163 141.503 73 141.592 73 141.682V143.938C73 144.119 73.0663 144.292 73.1842 144.42C73.3021 144.548 73.462 144.619 73.6288 144.619H74.4147V148H77.5853V144.619H78.3712C78.538 144.619 78.6979 144.548 78.8158 144.42C78.9338 144.292 79 144.119 79 143.938V141.682C79 141.592 78.9837 141.503 78.9521 141.421C78.9205 141.338 78.8742 141.263 78.8158 141.2C78.7575 141.136 78.6881 141.086 78.6119 141.052C78.5356 141.018 78.4538 141 78.3712 141V141Z" fill="#E6E6E6"/>
<path d="M82.5236 158.771C79.8123 154.815 78.4262 150.105 78.564 145.315C78.5664 145.204 78.5304 145.096 78.4621 145.009C78.3938 144.922 78.2974 144.861 78.1893 144.837V144H73.5137V144.826H73.4493C73.3862 144.826 73.3239 144.838 73.2657 144.862C73.2075 144.886 73.1547 144.922 73.1102 144.966C73.0657 145.011 73.0304 145.063 73.0064 145.122C72.9824 145.18 72.97 145.242 72.9701 145.305C72.9701 145.316 72.9706 145.328 72.9714 145.339C73.3398 150.459 72.096 155.051 69.24 159.114C69.0756 159.348 68.9916 159.628 69.0007 159.913L69.5119 175.682C69.5242 176.034 69.6722 176.368 69.9251 176.613C70.1781 176.859 70.5163 176.997 70.8692 177H81.4447C81.8017 176.997 82.1434 176.855 82.3971 176.605C82.6508 176.354 82.7964 176.015 82.8028 175.659L82.9999 160.348C83.0057 159.786 82.8395 159.236 82.5236 158.771Z" fill="#E6E6E6"/>
<path d="M80.0631 164H70.937C70.8019 164 70.6684 164.029 70.5456 164.085C70.4229 164.141 70.3138 164.223 70.2258 164.325C70.1379 164.428 70.0731 164.547 70.036 164.677C69.9989 164.806 69.9904 164.942 70.0109 165.075L71.39 174H79.3089L80.984 165.105C81.0093 164.97 81.0046 164.831 80.97 164.699C80.9355 164.566 80.872 164.443 80.784 164.337C80.6961 164.232 80.5859 164.147 80.4613 164.088C80.3367 164.03 80.2007 164 80.0631 164V164Z" fill="white"/>
<path d="M80 83H54C55.8178 72.4471 55.3996 59.7042 54 46H80C78.6377 59.7042 78.2306 72.4471 80 83Z" fill="#E6E6E6"/>
<path d="M67 70C70.3137 70 73 67.3137 73 64C73 60.6863 70.3137 58 67 58C63.6863 58 61 60.6863 61 64C61 67.3137 63.6863 70 67 70Z" fill="white"/>
<path d="M57 129H28C30.0275 119.018 29.561 106.963 28 94H57C55.4805 106.963 55.0264 119.018 57 129Z" fill="#E6E6E6"/>
<path d="M43.5 117C47.0899 117 50 114.09 50 110.5C50 106.91 47.0899 104 43.5 104C39.9101 104 37 106.91 37 110.5C37 114.09 39.9101 117 43.5 117Z" fill="white"/>
<path d="M96 84H69C70.8877 74.3028 70.4534 62.593 69 50H96C94.5853 62.5931 94.1625 74.3028 96 84Z" fill="#E6E6E6"/>
<path d="M83 73C86.3137 73 89 70.0899 89 66.5C89 62.9101 86.3137 60 83 60C79.6863 60 77 62.9101 77 66.5C77 70.0899 79.6863 73 83 73Z" fill="white"/>
<path d="M96 83H69C70.8877 72.7323 70.4534 60.3338 69 47H96C94.5853 60.3338 94.1625 72.7324 96 83Z" fill="#E6E6E6"/>
<path d="M83 71C86.3137 71 89 68.0899 89 64.5C89 60.9101 86.3137 58 83 58C79.6863 58 77 60.9101 77 64.5C77 68.0899 79.6863 71 83 71Z" fill="white"/>
<path d="M96 84H69C70.8877 74.3028 70.4534 62.593 69 50H96C94.5853 62.5931 94.1625 74.3028 96 84Z" fill="#E6E6E6"/>
<path d="M83 73C86.3137 73 89 70.0899 89 66.5C89 62.9101 86.3137 60 83 60C79.6863 60 77 62.9101 77 66.5C77 70.0899 79.6863 73 83 73Z" fill="white"/>
<path d="M102 80H14V91H102V80Z" fill="#E6E6E6"/>
<path d="M102 129H14V137H102V129Z" fill="#E6E6E6"/>
<path d="M102 176H14V185H102V176Z" fill="#E6E6E6"/>
<path d="M252.195 214L230 199.037C237.486 192.087 244.294 182.19 250.805 171L273 185.963C264.131 195.563 256.618 204.985 252.195 214Z" fill="#FFFED8"/>
<path d="M253 198C256.866 198 260 195.09 260 191.5C260 187.91 256.866 185 253 185C249.134 185 246 187.91 246 191.5C246 195.09 249.134 198 253 198Z" fill="white"/>
<path d="M148.581 145H145.419C145.308 145 145.201 145.031 145.123 145.086C145.044 145.14 145 145.215 145 145.292V146.259C145 146.297 145.011 146.335 145.032 146.371C145.053 146.406 145.084 146.438 145.123 146.466C145.162 146.493 145.208 146.514 145.259 146.529C145.31 146.544 145.364 146.551 145.419 146.551H145.943V148H148.057V146.551H148.581C148.692 146.551 148.799 146.52 148.877 146.466C148.956 146.411 149 146.337 149 146.259V145.292C149 145.215 148.956 145.14 148.877 145.086C148.799 145.031 148.692 145 148.581 145V145Z" fill="#E6E6E6"/>
<path d="M150.762 154.057C149.406 151.899 148.713 149.33 148.782 146.717C148.783 146.657 148.765 146.598 148.731 146.551C148.697 146.503 148.649 146.47 148.595 146.457V146H146.257V146.45H146.225C146.193 146.45 146.162 146.457 146.133 146.47C146.104 146.483 146.077 146.503 146.055 146.527C146.033 146.551 146.015 146.58 146.003 146.612C145.991 146.643 145.985 146.677 145.985 146.712C145.985 146.718 145.985 146.724 145.986 146.731C146.201 149.396 145.54 152.059 144.12 154.244C144.038 154.371 143.996 154.524 144 154.68L144.256 163.281C144.262 163.473 144.336 163.655 144.463 163.789C144.589 163.923 144.758 163.998 144.935 164H150.222C150.401 163.998 150.572 163.921 150.699 163.784C150.825 163.648 150.898 163.463 150.901 163.269L151 154.917C151.003 154.611 150.92 154.311 150.762 154.057V154.057Z" fill="#FFFED8"/>
<path opacity="0.2" d="M148 145C148 145.265 147.895 145.52 147.707 145.707C147.52 145.895 147.265 146 147 146C146.735 146 146.48 145.895 146.293 145.707C146.105 145.52 146 145.265 146 145" fill="black"/>
<path d="M150 156H144V158H150V156Z" fill="white"/>
<path d="M223.371 177H218.629C218.462 177 218.302 177.082 218.184 177.228C218.066 177.374 218 177.572 218 177.779V180.357C218 180.564 218.066 180.762 218.184 180.908C218.302 181.054 218.462 181.136 218.629 181.136H219.415V185H222.585V181.136H223.371C223.538 181.136 223.698 181.054 223.816 180.908C223.934 180.762 224 180.564 224 180.357V177.779C224 177.572 223.934 177.374 223.816 177.228C223.698 177.082 223.538 177 223.371 177V177Z" fill="#E6E6E6"/>
<path d="M227.524 195.771C224.812 191.815 223.426 187.105 223.564 182.315C223.566 182.204 223.53 182.096 223.462 182.009C223.394 181.922 223.297 181.861 223.189 181.837V181H218.514V181.826H218.449C218.386 181.826 218.324 181.838 218.266 181.862C218.208 181.886 218.155 181.922 218.11 181.966C218.066 182.011 218.03 182.063 218.006 182.122C217.982 182.18 217.97 182.242 217.97 182.305C217.97 182.316 217.971 182.328 217.971 182.339C218.34 187.459 217.096 192.051 214.24 196.114C214.076 196.348 213.992 196.628 214.001 196.913L214.512 212.682C214.524 213.034 214.672 213.368 214.925 213.613C215.178 213.859 215.516 213.997 215.869 214H226.445C226.802 213.997 227.143 213.855 227.397 213.605C227.651 213.354 227.796 213.015 227.803 212.659L228 197.348C228.006 196.786 227.84 196.236 227.524 195.771V195.771Z" fill="#FFFED8"/>
<path opacity="0.2" d="M222 178C222 178.796 221.895 179.559 221.707 180.121C221.52 180.684 221.265 181 221 181C220.735 181 220.48 180.684 220.293 180.121C220.105 179.559 220 178.796 220 178" fill="black"/>
<path d="M226.063 202H216.937C216.802 202 216.668 202.023 216.546 202.068C216.423 202.113 216.314 202.179 216.226 202.26C216.138 202.342 216.073 202.438 216.036 202.541C215.999 202.645 215.99 202.753 216.011 202.86L217.39 210H225.309L226.984 202.884C227.009 202.776 227.005 202.665 226.97 202.559C226.935 202.453 226.872 202.354 226.784 202.27C226.696 202.185 226.586 202.117 226.461 202.071C226.337 202.024 226.201 202 226.063 202V202Z" fill="white"/>
<path d="M210 214H185C186.748 204.303 186.346 192.593 185 180H210C208.69 192.593 208.299 204.303 210 214Z" fill="#FFFED8"/>
<path d="M197.5 203C201.09 203 204 200.09 204 196.5C204 192.91 201.09 190 197.5 190C193.91 190 191 192.91 191 196.5C191 200.09 193.91 203 197.5 203Z" fill="white"/>
<path d="M103 104L108.5 103.48L112 94.6402L105.75 91L103 104Z" fill="#FFB8B8"/>
<path d="M156.772 129.677C156.959 129.133 157.033 128.545 156.987 127.961C156.941 127.377 156.776 126.815 156.507 126.32C156.238 125.825 155.872 125.411 155.439 125.114C155.007 124.816 154.519 124.642 154.018 124.607L145.286 124L144 128.988L152.989 131.868C153.74 132.109 154.541 132.018 155.239 131.614C155.937 131.21 156.482 130.521 156.772 129.677V129.677Z" fill="#FFB8B8"/>
<path d="M148 132L147.897 123.155L127.154 119.743L111.173 100.849C110.342 99.8655 109.193 99.2264 107.939 99.0497C106.686 98.873 105.413 99.1707 104.356 99.8875C103.716 100.322 103.176 100.895 102.775 101.568C102.374 102.241 102.121 102.996 102.034 103.78C101.947 104.565 102.028 105.36 102.272 106.108C102.516 106.857 102.916 107.541 103.445 108.113L116.628 124.839L148 132Z" fill="#FFFED8"/>
<path d="M98 227H103.412L116.835 166.615L130.741 185.269L138.859 225.654H144L142.918 182.308L124.788 136H106.929C102.049 144.788 98.2206 153.847 102.6 163.192L98 227Z" fill="#DF4854"/>
<path d="M136.061 230.984C136.004 231.168 135.987 231.361 136.01 231.551C136.033 231.742 136.095 231.925 136.194 232.089C136.292 232.253 136.423 232.394 136.579 232.502C136.735 232.611 136.912 232.684 137.098 232.718L149.575 234.966C150.068 235.058 150.577 234.963 151.006 234.7C151.435 234.436 151.754 234.023 151.904 233.537V233.537C152.049 233.073 152.029 232.572 151.847 232.121C151.664 231.671 151.331 231.3 150.906 231.074C148.163 229.644 145.802 227.56 144.025 225C142.654 226.297 141.121 226.175 139.494 225.219L137.768 225.438L136.061 230.984Z" fill="#2F2E41"/>
<path d="M96.0606 230.984C96.0042 231.168 95.9869 231.361 96.0098 231.551C96.0328 231.742 96.0954 231.925 96.1936 232.089C96.2917 232.253 96.4232 232.394 96.5792 232.502C96.7351 232.611 96.9121 232.684 97.0982 232.718L109.575 234.966C110.068 235.058 110.577 234.963 111.006 234.7C111.435 234.436 111.755 234.023 111.904 233.537V233.537C112.049 233.073 112.029 232.572 111.847 232.121C111.664 231.671 111.331 231.3 110.906 231.074C108.163 229.644 105.802 227.56 104.025 225C102.654 226.297 101.121 226.175 99.4938 225.219L97.7675 225.438L96.0606 230.984Z" fill="#2F2E41"/>
<path d="M111.5 98C115.642 98 119 94.6421 119 90.5C119 86.3579 115.642 83 111.5 83C107.358 83 104 86.3579 104 90.5C104 94.6421 107.358 98 111.5 98Z" fill="#FFB8B8"/>
<path d="M105.099 137L125 136.478L119.155 118.856C122.788 113.278 119.132 107.705 113.959 102.134L109.87 99.5223L103.327 99C100.494 101.904 98.9441 105.745 99.0015 109.719C99.1311 118.23 100.704 127.494 105.099 137Z" fill="#FFFED8"/>
<path d="M150.954 149.877C151.354 149.448 151.653 148.922 151.827 148.344C152.001 147.765 152.045 147.151 151.954 146.551C151.864 145.951 151.642 145.383 151.307 144.893C150.972 144.403 150.534 144.006 150.028 143.734L141.223 139L138 143.143L146.208 150.165C146.894 150.752 147.757 151.047 148.632 150.994C149.508 150.941 150.334 150.543 150.954 149.877V149.877Z" fill="#FFB8B8"/>
<path d="M140.762 148L144 140.225L126.461 129.239L119.076 106.551C118.691 105.371 117.889 104.369 116.818 103.73C115.748 103.092 114.48 102.862 113.251 103.081V103.081C112.507 103.213 111.801 103.507 111.183 103.94C110.566 104.374 110.052 104.937 109.677 105.589C109.303 106.242 109.077 106.968 109.017 107.717C108.956 108.466 109.061 109.219 109.326 109.922L114.99 129.635L140.762 148Z" fill="#FFFED8"/>
<path d="M99 87.8374C99 90.7235 100.889 95.1932 103.271 97.1092C104.874 98.3984 106.992 98.3441 107.808 96.5794C108.646 94.7691 111.534 90.5141 116.617 87.8374C123.393 84.2692 114.214 78.1645 107.808 79.0953C102.995 79.7948 99 83.0093 99 87.8374Z" fill="#2F2E41"/>
<path d="M104.5 83C107.538 83 110 80.7614 110 78C110 75.2386 107.538 73 104.5 73C101.462 73 99 75.2386 99 78C99 80.7614 101.462 83 104.5 83Z" fill="#2F2E41"/>
<path d="M110.163 75.5C110.162 74.1134 109.63 72.7782 108.672 71.7621C107.715 70.746 106.403 70.124 105 70.0208C105.139 70.0107 105.277 70 105.419 70C106.899 70 108.319 70.5795 109.365 71.6109C110.412 72.6424 111 74.0413 111 75.5C111 76.9587 110.412 78.3576 109.365 79.3891C108.319 80.4205 106.899 81 105.419 81C105.277 81 105.139 80.9893 105 80.9792C106.403 80.876 107.715 80.254 108.672 79.2379C109.63 78.2217 110.162 76.8866 110.163 75.5Z" fill="#2F2E41"/>
<path d="M112.5 93C113.328 93 114 92.3284 114 91.5C114 90.6716 113.328 90 112.5 90C111.672 90 111 90.6716 111 91.5C111 92.3284 111.672 93 112.5 93Z" fill="#FFB8B8"/>
<path d="M266 217H181.259L163.315 132.779H148V129H166.4L184.345 213.221H266V217Z" fill="#3F3D56"/>
<path d="M193.5 233C198.194 233 202 229.194 202 224.5C202 219.806 198.194 216 193.5 216C188.806 216 185 219.806 185 224.5C185 229.194 188.806 233 193.5 233Z" fill="#3F3D56"/>
<path d="M254 233C258.418 233 262 229.194 262 224.5C262 219.806 258.418 216 254 216C249.582 216 246 219.806 246 224.5C246 229.194 249.582 233 254 233Z" fill="#3F3D56"/>
<path d="M263.678 215H182.35L168 144H277.144C277.701 144 278.251 144.121 278.757 144.354C279.263 144.588 279.712 144.928 280.074 145.352C280.436 145.775 280.702 146.273 280.854 146.809C281.006 147.346 281.04 147.909 280.953 148.459L267.487 211.739C267.348 212.649 266.887 213.479 266.188 214.078C265.488 214.677 264.598 215.004 263.678 215V215ZM183.233 213.926H263.678C264.342 213.929 264.985 213.693 265.489 213.26C265.994 212.828 266.326 212.229 266.426 211.572L279.893 148.293C279.956 147.895 279.931 147.489 279.822 147.101C279.712 146.714 279.52 146.355 279.259 146.049C278.998 145.744 278.674 145.498 278.308 145.33C277.943 145.161 277.546 145.074 277.144 145.074H169.302L183.233 213.926Z" fill="#3F3D56"/>
<path d="M198.887 215L189 144.177L190.113 144L200 214.823L198.887 215Z" fill="#3F3D56"/>
<path d="M250.144 214L249 213.828L258.856 144L260 144.172L250.144 214Z" fill="#3F3D56"/>
<path d="M226 144H225V215H226V144Z" fill="#3F3D56"/>
<path d="M173.151 163.344L173.149 164.426L277.891 164.68L277.894 163.598L173.151 163.344Z" fill="#3F3D56"/>
<path d="M270.502 196.77L178.484 197.399L178.491 198.481L270.51 197.852L270.502 196.77Z" fill="#3F3D56"/>
<path d="M149.5 133C152.538 133 155 131.881 155 130.5C155 129.119 152.538 128 149.5 128C146.462 128 144 129.119 144 130.5C144 131.881 146.462 133 149.5 133Z" fill="#3F3D56"/>
</svg>
